<?xml version="1.0" encoding="UTF-8"?>
<!DOCTYPE svg PUBLIC "-//W3C//DTD SVG 1.1//EN" "http://www.w3.org/Graphics/SVG/1.1/DTD/svg11.dtd">
<!-- Creator: CorelDRAW 2021.5 -->
<svg xmlns="http://www.w3.org/2000/svg" xml:space="preserve" width="1652px" height="1652px" version="1.1" style="shape-rendering:geometricPrecision; text-rendering:geometricPrecision; image-rendering:optimizeQuality; fill-rule:evenodd; clip-rule:evenodd"
viewBox="0 0 1652 1652"
 xmlns:xlink="http://www.w3.org/1999/xlink"
 xmlns:xodm="http://www.corel.com/coreldraw/odm/2003">
 <defs>
  <style type="text/css">
   <![CDATA[
    .str0 {stroke:black;stroke-width:2.36;stroke-miterlimit:22.9256}
    .fil0 {fill:black}
   ]]>
  </style>
 </defs>
 <g id="Layer_x0020_1">
  <metadata id="CorelCorpID_0Corel-Layer"/>
  <path class="fil0 str0" d="M826 1.18c455.54,0 824.82,369.28 824.82,824.82 0,455.54 -369.28,824.82 -824.82,824.82 -455.54,0 -824.82,-369.28 -824.82,-824.82 0,-455.54 369.28,-824.82 824.82,-824.82zm-259.84 739.7c-20.16,-20.71 -40.54,-36.05 -61.13,-46.13 -20.71,-9.97 -42.4,-15.01 -65.08,-15.01 -39.33,0 -71.54,13.59 -96.52,40.76 -25.09,27.17 -37.58,62.12 -37.58,104.62 0,42.62 12.38,77.13 37.25,103.54 24.76,26.4 57.08,39.66 96.96,39.66 23.55,0 47,-4.93 70.44,-14.79 23.45,-9.86 46.78,-24.65 70.12,-44.38l-7.12 123.59c-19.94,13.47 -41.63,23.77 -65.3,30.78 -23.66,7.12 -48.2,10.63 -73.73,10.63 -27.39,0 -53.57,-4.27 -78.77,-12.82 -25.09,-8.54 -48.32,-21.25 -69.46,-37.91 -30.02,-23.55 -52.92,-52.26 -68.91,-86.22 -15.89,-33.85 -23.89,-70.88 -23.89,-110.87 0,-34.51 5.92,-66.83 17.64,-96.96 11.83,-30.13 28.93,-56.86 51.39,-79.98 22.67,-23.11 48.86,-40.75 78.66,-53.13 29.69,-12.27 61.02,-18.41 94,-18.41 26.18,0 51.05,3.62 74.83,10.96 23.77,7.23 46.45,18.3 68.03,33.09l-11.83 118.98zm145.84 85.45c0,40.43 11.84,74.39 35.5,101.67 23.67,27.28 52.81,40.97 87.43,40.97 34.84,0 64.09,-13.58 87.64,-40.75 23.56,-27.28 35.28,-61.24 35.28,-101.89 0,-40.86 -11.72,-75.05 -35.28,-102.33 -23.55,-27.28 -52.8,-40.97 -87.64,-40.97 -34.62,0 -63.76,13.69 -87.43,40.97 -23.66,27.28 -35.5,61.47 -35.5,102.33zm-114.37 0c0,-34.51 5.91,-66.72 17.86,-96.74 11.83,-30.13 29.36,-56.97 52.47,-80.74 21.8,-22.68 47.22,-40.1 76.14,-52.15 28.82,-12.16 59.17,-18.19 90.83,-18.19 31.66,0 62.01,6.14 91.04,18.3 29.03,12.16 54.78,29.8 77.24,52.69 22.68,22.9 39.88,49.31 51.49,79.43 11.72,30.02 17.53,62.56 17.53,97.4 0,29.14 -4.05,56.53 -12.16,82.17 -8.22,25.63 -20.27,49.08 -36.37,70.33 -22.68,30.13 -50.51,53.58 -83.6,70.23 -33.08,16.76 -68.14,25.09 -105.17,25.09 -31.44,0 -61.57,-6.14 -90.39,-18.3 -28.81,-12.16 -54.34,-29.8 -76.58,-52.69 -23.11,-23.67 -40.64,-50.51 -52.47,-80.42 -11.95,-29.8 -17.86,-62.01 -17.86,-96.41zm652 -147.25l-15.12 0 0 124.24 20.16 0c28.04,0 49.41,-5.37 64.2,-16.21 14.79,-10.85 22.13,-26.4 22.13,-46.67 0,-21.26 -7.23,-36.7 -21.8,-46.56 -14.57,-9.87 -37.8,-14.8 -69.57,-14.8zm-126.21 379.95l0 -465.4 119.74 0c36.82,0 66.07,2.63 87.65,8 21.58,5.37 40.76,14.35 57.52,26.95 17.31,12.6 30.78,28.37 40.32,47.33 9.53,18.95 14.24,39 14.24,60.15 0,47.1 -16.76,84.35 -50.29,111.96 -33.41,27.61 -78.88,41.41 -136.29,41.41 -5.91,0 -10.41,0 -13.47,-0.1 -2.96,-0.11 -5.81,-0.33 -8.33,-0.55l0 170.25 -111.09 0z"/>
 </g>
</svg>
