<?xml version="1.0" encoding="UTF-8"?>
<!DOCTYPE svg PUBLIC "-//W3C//DTD SVG 1.1//EN" "http://www.w3.org/Graphics/SVG/1.1/DTD/svg11.dtd">
<!-- Creator: CorelDRAW 2021.5 -->
<svg xmlns="http://www.w3.org/2000/svg" xml:space="preserve" width="1652px" height="1652px" version="1.1" style="shape-rendering:geometricPrecision; text-rendering:geometricPrecision; image-rendering:optimizeQuality; fill-rule:evenodd; clip-rule:evenodd"
viewBox="0 0 1652 1652"
 xmlns:xlink="http://www.w3.org/1999/xlink"
 xmlns:xodm="http://www.corel.com/coreldraw/odm/2003">
 <defs>
  <style type="text/css">
   <![CDATA[
    .str0 {stroke:black;stroke-width:2.36;stroke-miterlimit:22.9256}
    .fil0 {fill:black}
   ]]>
  </style>
 </defs>
 <g id="Layer_x0020_1">
  <metadata id="CorelCorpID_0Corel-Layer"/>
  <path class="fil0 str0" d="M826 1.18c455.54,0 824.82,369.28 824.82,824.82 0,455.54 -369.28,824.82 -824.82,824.82 -455.54,0 -824.82,-369.28 -824.82,-824.82 0,-455.54 369.28,-824.82 824.82,-824.82zm-85.81 799.51l0 226.24c-31.22,15.67 -61.68,27.39 -91.26,35.28 -29.69,7.99 -58.39,11.94 -86.22,11.94 -70.88,0 -129.61,-23.34 -176.39,-70.12 -46.78,-46.78 -70.11,-105.83 -70.11,-177.04 0,-71.98 23.66,-131.47 71.1,-178.47 47.44,-47.11 107.36,-70.67 180,-70.67 27.39,0 53.47,3.73 78.33,11.29 24.76,7.45 48.65,18.84 71.55,33.96l-11.95 116.46c-21.58,-21.8 -43.05,-37.8 -64.42,-47.88 -21.47,-10.18 -43.93,-15.22 -67.48,-15.22 -41.75,0 -76.26,13.91 -103.65,41.85 -27.38,27.93 -41.08,62.88 -41.08,104.73 0,44.15 13.26,80.09 39.66,108.03 26.4,27.93 60.48,41.85 102.11,41.85 9.64,0 19.39,-0.88 29.25,-2.52 9.86,-1.76 20.05,-4.17 30.79,-7.45l0 -67.6 -88.09 0 0 -94.66 197.86 0zm67.19 258.34l0 -465.4 111.09 0 0 465.4 -111.09 0zm319.49 -379.95l-15.12 0 0 124.24 20.16 0c28.05,0 49.41,-5.37 64.2,-16.21 14.79,-10.85 22.13,-26.4 22.13,-46.67 0,-21.26 -7.23,-36.7 -21.8,-46.56 -14.57,-9.87 -37.8,-14.8 -69.57,-14.8zm-126.21 379.95l0 -465.4 119.75 0c36.81,0 66.06,2.63 87.64,8 21.58,5.37 40.76,14.35 57.52,26.95 17.31,12.6 30.78,28.37 40.32,47.33 9.53,18.95 14.24,39 14.24,60.15 0,47.1 -16.76,84.35 -50.29,111.96 -33.41,27.61 -78.88,41.41 -136.29,41.41 -5.91,0 -10.4,0 -13.47,-0.1 -2.96,-0.11 -5.81,-0.33 -8.33,-0.55l0 170.25 -111.09 0z"/>
 </g>
</svg>
