<?xml version="1.0" encoding="UTF-8"?>
<!DOCTYPE svg PUBLIC "-//W3C//DTD SVG 1.1//EN" "http://www.w3.org/Graphics/SVG/1.1/DTD/svg11.dtd">
<!-- Creator: CorelDRAW 2021.5 -->
<svg xmlns="http://www.w3.org/2000/svg" xml:space="preserve" width="1652px" height="1652px" version="1.1" style="shape-rendering:geometricPrecision; text-rendering:geometricPrecision; image-rendering:optimizeQuality; fill-rule:evenodd; clip-rule:evenodd"
viewBox="0 0 1652 1652"
 xmlns:xlink="http://www.w3.org/1999/xlink"
 xmlns:xodm="http://www.corel.com/coreldraw/odm/2003">
 <defs>
  <style type="text/css">
   <![CDATA[
    .str0 {stroke:black;stroke-width:2.36;stroke-miterlimit:22.9256}
    .fil0 {fill:black}
   ]]>
  </style>
 </defs>
 <g id="Layer_x0020_1">
  <metadata id="CorelCorpID_0Corel-Layer"/>
  <path class="fil0 str0" d="M826 1.18c455.54,0 824.82,369.28 824.82,824.82 0,455.54 -369.28,824.82 -824.82,824.82 -455.54,0 -824.82,-369.28 -824.82,-824.82 0,-455.54 369.28,-824.82 824.82,-824.82zm-577.34 926.38c28.6,17.53 52.92,29.69 72.97,36.81 19.94,7.01 39.44,10.52 58.5,10.52 19.17,0 34.62,-4.27 46.34,-12.71 11.62,-8.44 17.42,-19.28 17.42,-32.54 0,-18.95 -20.7,-40.42 -62.22,-64.09 -6.69,-3.83 -11.84,-6.9 -15.45,-8.98l-31.45 -17.75c-30.56,-17.31 -53.24,-36.92 -67.92,-58.72 -14.79,-21.8 -22.13,-46.56 -22.13,-74.17 0,-37.47 14.13,-68.15 42.4,-92.14 28.15,-23.99 64.64,-35.94 109.34,-35.94 16.54,0 34.4,1.98 53.57,5.81 19.28,3.83 40.64,9.86 64.2,17.97l0 109.01c-22.46,-14.03 -43.71,-24.87 -63.87,-32.54 -20.16,-7.67 -37.25,-11.5 -51.38,-11.5 -15.67,0 -27.94,3.39 -36.93,10.07 -8.98,6.69 -13.47,15.89 -13.47,27.39 0,8.11 2.63,15.67 8,22.68 5.37,7.12 13.36,13.48 24.1,19.28l54.56 30.13c45.68,25.31 76.36,48.65 92.14,70.01 15.77,21.47 23.66,46.78 23.66,76.14 0,45.36 -15.45,82.06 -46.34,110 -31.01,27.94 -71.98,41.85 -123.14,41.85 -17.31,0 -36.16,-1.86 -56.54,-5.48 -20.26,-3.61 -42.72,-9.31 -67.05,-16.98l-9.31 -124.13zm442.31 -101.23c0,40.43 11.83,74.39 35.5,101.67 23.66,27.28 52.8,40.97 87.42,40.97 34.84,0 64.1,-13.58 87.65,-40.75 23.56,-27.28 35.28,-61.24 35.28,-101.89 0,-40.86 -11.72,-75.05 -35.28,-102.33 -23.55,-27.28 -52.81,-40.97 -87.65,-40.97 -34.62,0 -63.76,13.69 -87.42,40.97 -23.67,27.28 -35.5,61.47 -35.5,102.33zm-114.38 0c0,-34.51 5.92,-66.72 17.86,-96.74 11.83,-30.13 29.36,-56.97 52.48,-80.74 21.8,-22.68 47.22,-40.1 76.14,-52.15 28.81,-12.16 59.16,-18.19 90.82,-18.19 31.67,0 62.01,6.14 91.05,18.3 29.03,12.16 54.78,29.8 77.23,52.69 22.68,22.9 39.88,49.31 51.5,79.43 11.72,30.02 17.53,62.56 17.53,97.4 0,29.14 -4.06,56.53 -12.17,82.17 -8.21,25.63 -20.26,49.08 -36.37,70.33 -22.68,30.13 -50.5,53.58 -83.59,70.23 -33.09,16.76 -68.14,25.09 -105.18,25.09 -31.44,0 -61.57,-6.14 -90.38,-18.3 -28.81,-12.16 -54.34,-29.8 -76.58,-52.69 -23.12,-23.67 -40.65,-50.51 -52.48,-80.42 -11.94,-29.8 -17.86,-62.01 -17.86,-96.41zm504.76 101.23c28.59,17.53 52.92,29.69 72.96,36.81 19.94,7.01 39.44,10.52 58.51,10.52 19.17,0 34.62,-4.27 46.34,-12.71 11.61,-8.44 17.42,-19.28 17.42,-32.54 0,-18.95 -20.71,-40.42 -62.23,-64.09 -6.68,-3.83 -11.83,-6.9 -15.45,-8.98l-31.44 -17.75c-30.57,-17.31 -53.24,-36.92 -67.92,-58.72 -14.79,-21.8 -22.13,-46.56 -22.13,-74.17 0,-37.47 14.13,-68.15 42.39,-92.14 28.16,-23.99 64.64,-35.94 109.34,-35.94 16.55,0 34.4,1.98 53.58,5.81 19.28,3.83 40.64,9.86 64.2,17.97l0 109.01c-22.46,-14.03 -43.72,-24.87 -63.88,-32.54 -20.15,-7.67 -37.25,-11.5 -51.38,-11.5 -15.67,0 -27.94,3.39 -36.92,10.07 -8.98,6.69 -13.47,15.89 -13.47,27.39 0,8.11 2.62,15.67 7.99,22.68 5.37,7.12 13.37,13.48 24.11,19.28l54.56 30.13c45.68,25.31 76.36,48.65 92.13,70.01 15.78,21.47 23.67,46.78 23.67,76.14 0,45.36 -15.45,82.06 -46.34,110 -31.01,27.94 -71.98,41.85 -123.15,41.85 -17.31,0 -36.15,-1.86 -56.53,-5.48 -20.27,-3.61 -42.73,-9.31 -67.05,-16.98l-9.31 -124.13z"/>
 </g>
</svg>
