<?xml version="1.0" encoding="UTF-8"?>
<!DOCTYPE svg PUBLIC "-//W3C//DTD SVG 1.1//EN" "http://www.w3.org/Graphics/SVG/1.1/DTD/svg11.dtd">
<!-- Creator: CorelDRAW 2021.5 -->
<svg xmlns="http://www.w3.org/2000/svg" xml:space="preserve" width="1652px" height="1652px" version="1.1" style="shape-rendering:geometricPrecision; text-rendering:geometricPrecision; image-rendering:optimizeQuality; fill-rule:evenodd; clip-rule:evenodd"
viewBox="0 0 1652 1652"
 xmlns:xlink="http://www.w3.org/1999/xlink"
 xmlns:xodm="http://www.corel.com/coreldraw/odm/2003">
 <defs>
  <style type="text/css">
   <![CDATA[
    .str0 {stroke:black;stroke-width:2.36;stroke-miterlimit:22.9256}
    .fil0 {fill:black}
   ]]>
  </style>
 </defs>
 <g id="Layer_x0020_1">
  <metadata id="CorelCorpID_0Corel-Layer"/>
  <path class="fil0 str0" d="M826 1.18c455.54,0 824.82,369.28 824.82,824.82 0,455.54 -369.28,824.82 -824.82,824.82 -455.54,0 -824.82,-369.28 -824.82,-824.82 0,-455.54 369.28,-824.82 824.82,-824.82zm-495.83 973.71l46.24 0c22.13,0 39.66,-5.48 52.36,-16.32 12.71,-10.96 19.07,-25.86 19.07,-44.92 0,-18.63 -6.25,-32.98 -18.63,-43.17 -12.38,-10.19 -30.02,-15.23 -52.8,-15.23l-46.24 0 0 119.64zm0 -197.2l36.92 0c21.81,0 38.79,-4.82 51.17,-14.36 12.27,-9.53 18.4,-23 18.4,-40.31 0,-17.42 -5.8,-30.13 -17.53,-38.24 -11.61,-8.21 -29.8,-12.27 -54.67,-12.27l-34.29 0 0 105.18zm-101.23 281.34l0 -465.4 143.85 0c54.23,0 95.1,9.86 122.82,29.69 27.71,19.83 41.63,49.19 41.63,88.19 0,23.78 -6.36,43.94 -18.96,60.48 -12.7,16.65 -31.77,29.47 -57.29,38.67 28.37,6.47 50.5,19.61 66.61,39.66 16.1,20.05 24.1,44.48 24.1,73.3 0,44.7 -16.54,78.44 -49.63,101.23 -33.09,22.79 -82.06,34.18 -146.92,34.18l-126.21 0zm462.03 -232.7c0,40.43 11.83,74.39 35.5,101.67 23.66,27.28 52.8,40.97 87.42,40.97 34.84,0 64.1,-13.58 87.65,-40.75 23.56,-27.28 35.28,-61.24 35.28,-101.89 0,-40.86 -11.72,-75.05 -35.28,-102.33 -23.55,-27.28 -52.81,-40.97 -87.65,-40.97 -34.62,0 -63.76,13.69 -87.42,40.97 -23.67,27.28 -35.5,61.47 -35.5,102.33zm-114.38 0c0,-34.51 5.92,-66.72 17.86,-96.74 11.83,-30.13 29.36,-56.97 52.48,-80.74 21.8,-22.68 47.22,-40.1 76.14,-52.15 28.81,-12.16 59.16,-18.19 90.82,-18.19 31.67,0 62.01,6.14 91.05,18.3 29.03,12.16 54.78,29.8 77.23,52.69 22.68,22.9 39.88,49.31 51.5,79.43 11.72,30.02 17.53,62.56 17.53,97.4 0,29.14 -4.06,56.53 -12.17,82.17 -8.21,25.63 -20.26,49.08 -36.37,70.33 -22.68,30.13 -50.5,53.58 -83.59,70.23 -33.09,16.76 -68.14,25.09 -105.18,25.09 -31.44,0 -61.57,-6.14 -90.38,-18.3 -28.81,-12.16 -54.34,-29.8 -76.58,-52.69 -23.12,-23.67 -40.65,-50.51 -52.48,-80.42 -11.94,-29.8 -17.86,-62.01 -17.86,-96.41zm627.02 148.56l46.24 0c22.13,0 39.66,-5.48 52.37,-16.32 12.71,-10.96 19.06,-25.86 19.06,-44.92 0,-18.63 -6.24,-32.98 -18.62,-43.17 -12.38,-10.19 -30.02,-15.23 -52.81,-15.23l-46.24 0 0 119.64zm0 -197.2l36.93 0c21.8,0 38.78,-4.82 51.16,-14.36 12.27,-9.53 18.41,-23 18.41,-40.31 0,-17.42 -5.81,-30.13 -17.53,-38.24 -11.62,-8.21 -29.8,-12.27 -54.67,-12.27l-34.3 0 0 105.18zm-101.23 281.34l0 -465.4 143.85 0c54.23,0 95.1,9.86 122.82,29.69 27.72,19.83 41.63,49.19 41.63,88.19 0,23.78 -6.35,43.94 -18.95,60.48 -12.71,16.65 -31.78,29.47 -57.3,38.67 28.37,6.47 50.5,19.61 66.61,39.66 16.1,20.05 24.1,44.48 24.1,73.3 0,44.7 -16.54,78.44 -49.63,101.23 -33.09,22.79 -82.06,34.18 -146.92,34.18l-126.21 0z"/>
 </g>
</svg>
