<?xml version="1.0" encoding="UTF-8"?>
<!DOCTYPE svg PUBLIC "-//W3C//DTD SVG 1.1//EN" "http://www.w3.org/Graphics/SVG/1.1/DTD/svg11.dtd">
<!-- Creator: CorelDRAW 2021.5 -->
<svg xmlns="http://www.w3.org/2000/svg" xml:space="preserve" width="1652px" height="1652px" version="1.1" style="shape-rendering:geometricPrecision; text-rendering:geometricPrecision; image-rendering:optimizeQuality; fill-rule:evenodd; clip-rule:evenodd"
viewBox="0 0 1652 1652"
 xmlns:xlink="http://www.w3.org/1999/xlink"
 xmlns:xodm="http://www.corel.com/coreldraw/odm/2003">
 <defs>
  <style type="text/css">
   <![CDATA[
    .str0 {stroke:black;stroke-width:2.36;stroke-miterlimit:22.9256}
    .fil0 {fill:black}
   ]]>
  </style>
 </defs>
 <g id="Layer_x0020_1">
  <metadata id="CorelCorpID_0Corel-Layer"/>
  <path class="fil0 str0" d="M826 1.18c455.54,0 824.82,369.28 824.82,824.82 0,455.54 -369.28,824.82 -824.82,824.82 -455.54,0 -824.82,-369.28 -824.82,-824.82 0,-455.54 369.28,-824.82 824.82,-824.82zm-240.17 799.51l0 226.24c-31.23,15.67 -61.69,27.39 -91.27,35.28 -29.69,7.99 -58.39,11.94 -86.22,11.94 -70.88,0 -129.6,-23.34 -176.39,-70.12 -46.78,-46.78 -70.11,-105.83 -70.11,-177.04 0,-71.98 23.66,-131.47 71.1,-178.47 47.44,-47.11 107.37,-70.67 180,-70.67 27.39,0 53.47,3.73 78.34,11.29 24.76,7.45 48.64,18.84 71.54,33.96l-11.94 116.46c-21.59,-21.8 -43.06,-37.8 -64.42,-47.88 -21.48,-10.18 -43.94,-15.22 -67.49,-15.22 -41.74,0 -76.25,13.91 -103.64,41.85 -27.39,27.93 -41.09,62.88 -41.09,104.73 0,44.15 13.26,80.09 39.66,108.03 26.41,27.93 60.48,41.85 102.11,41.85 9.64,0 19.39,-0.88 29.25,-2.52 9.86,-1.76 20.05,-4.17 30.79,-7.45l0 -67.6 -88.09 0 0 -94.66 197.87 0zm149.02 258.34l0 -368.11 -147.9 0 0 -97.29 406.23 0 0 97.29 -147.24 0 0 368.11 -111.09 0zm308.54 37.03c2.84,-15.23 6.57,-30.35 11.28,-45.58 4.71,-15.22 10.63,-30.67 17.64,-46.56 -26.73,-23.99 -47,-51.16 -60.59,-81.73 -13.58,-30.45 -20.37,-63.43 -20.37,-99.04 0,-27.39 4.16,-53.9 12.49,-79.65 8.43,-25.63 20.59,-49.08 36.59,-70.22 22.79,-30.24 50.5,-53.58 83.26,-70.01 32.76,-16.54 67.71,-24.76 104.96,-24.76 26.51,0 52.04,4.27 76.58,12.71 24.54,8.44 47.22,20.92 68.25,37.36 29.8,23.33 52.59,52.04 68.59,86.11 15.88,33.96 23.88,71.21 23.88,111.64 0,32.1 -6.25,63.1 -18.63,92.79 -12.38,29.8 -29.91,55.55 -52.36,77.46 -20.05,20.05 -42.95,35.61 -68.48,46.67 -25.63,11.07 -51.16,16.55 -76.58,16.55 -10.95,0 -29.58,-2.74 -55.87,-8.33l-0.66 -0.33 -0.99 6.68c14.58,3.29 46.9,13.26 96.96,30.24 49.96,16.87 92.91,26.3 128.62,28.16l-26.95 83.48c-39.55,-2.96 -94.66,-19.61 -165.32,-49.74 -9.2,-3.94 -16.1,-6.79 -20.82,-8.76l-3.83 -1.54c-60.59,-25.63 -113.17,-40.2 -157.65,-43.6zm62.33 -269.73c0,40.43 11.84,74.39 35.5,101.67 23.67,27.28 52.81,40.97 87.43,40.97 34.84,0 64.09,-13.58 87.64,-40.75 23.56,-27.28 35.28,-61.24 35.28,-101.89 0,-40.86 -11.72,-75.05 -35.28,-102.33 -23.55,-27.28 -52.8,-40.97 -87.64,-40.97 -34.62,0 -63.76,13.69 -87.43,40.97 -23.66,27.28 -35.5,61.47 -35.5,102.33z"/>
 </g>
</svg>
