<?xml version="1.0" encoding="UTF-8"?>
<!DOCTYPE svg PUBLIC "-//W3C//DTD SVG 1.1//EN" "http://www.w3.org/Graphics/SVG/1.1/DTD/svg11.dtd">
<!-- Creator: CorelDRAW 2021.5 -->
<svg xmlns="http://www.w3.org/2000/svg" xml:space="preserve" width="1652px" height="1652px" version="1.1" style="shape-rendering:geometricPrecision; text-rendering:geometricPrecision; image-rendering:optimizeQuality; fill-rule:evenodd; clip-rule:evenodd"
viewBox="0 0 1652 1652"
 xmlns:xlink="http://www.w3.org/1999/xlink"
 xmlns:xodm="http://www.corel.com/coreldraw/odm/2003">
 <defs>
  <style type="text/css">
   <![CDATA[
    .str0 {stroke:black;stroke-width:2.36;stroke-miterlimit:22.9256}
    .fil0 {fill:black}
   ]]>
  </style>
 </defs>
 <g id="Layer_x0020_1">
  <metadata id="CorelCorpID_0Corel-Layer"/>
  <path class="fil0 str0" d="M826 1.18c455.54,0 824.82,369.28 824.82,824.82 0,455.54 -369.28,824.82 -824.82,824.82 -455.54,0 -824.82,-369.28 -824.82,-824.82 0,-455.54 369.28,-824.82 824.82,-824.82zm-433.93 677.9l-15.12 0 0 124.24 20.16 0c28.05,0 49.41,-5.37 64.2,-16.21 14.79,-10.85 22.13,-26.4 22.13,-46.67 0,-21.26 -7.23,-36.7 -21.8,-46.56 -14.57,-9.87 -37.8,-14.8 -69.57,-14.8zm-126.21 379.95l0 -465.4 119.75 0c36.81,0 66.06,2.63 87.64,8 21.59,5.37 40.76,14.35 57.52,26.95 17.31,12.6 30.79,28.37 40.32,47.33 9.53,18.95 14.24,39 14.24,60.15 0,47.1 -16.76,84.35 -50.28,111.96 -33.42,27.61 -78.89,41.41 -136.29,41.41 -5.92,0 -10.41,0 -13.48,-0.1 -2.96,-0.11 -5.81,-0.33 -8.33,-0.55l0 170.25 -111.09 0zm362.12 0l0 -465.4 109.77 0 0 202.57 153.71 -202.57 132.24 0 -175.51 221.42 189.31 243.98 -134.1 0 -165.65 -214.4 0 214.4 -109.77 0zm547.59 -380.6l-18.3 0 0 128.84 23.45 0c28.04,0 49.41,-5.7 64.2,-16.98 14.79,-11.29 22.13,-27.61 22.13,-48.76 0,-22.24 -7.12,-38.23 -21.47,-48.2 -14.36,-9.97 -37.69,-14.9 -70.01,-14.9zm-126.1 380.6l0 -465.4 119.63 0c38.35,0 68.04,2.52 89.18,7.56 21.15,5.04 39.77,13.37 56.1,25.2 17.31,12.38 30.78,27.72 40.32,46.01 9.53,18.3 14.24,37.58 14.24,57.85 0,29.36 -7.45,55 -22.35,77.02 -14.9,22.02 -36.37,39.22 -64.42,51.71l141.99 200.05 -126.87 0 -124.24 -182.74 -15.78 0 0 182.74 -107.8 0z"/>
 </g>
</svg>
