<?xml version="1.0" encoding="UTF-8"?>
<!DOCTYPE svg PUBLIC "-//W3C//DTD SVG 1.1//EN" "http://www.w3.org/Graphics/SVG/1.1/DTD/svg11.dtd">
<!-- Creator: CorelDRAW 2021.5 -->
<svg xmlns="http://www.w3.org/2000/svg" xml:space="preserve" width="1652px" height="1652px" version="1.1" style="shape-rendering:geometricPrecision; text-rendering:geometricPrecision; image-rendering:optimizeQuality; fill-rule:evenodd; clip-rule:evenodd"
viewBox="0 0 1652 1652"
 xmlns:xlink="http://www.w3.org/1999/xlink"
 xmlns:xodm="http://www.corel.com/coreldraw/odm/2003">
 <defs>
  <style type="text/css">
   <![CDATA[
    .str0 {stroke:black;stroke-width:2.36;stroke-miterlimit:22.9256}
    .fil0 {fill:black}
   ]]>
  </style>
 </defs>
 <g id="Layer_x0020_1">
  <metadata id="CorelCorpID_0Corel-Layer"/>
  <path class="fil0 str0" d="M826 1.18c455.54,0 824.82,369.28 824.82,824.82 0,455.54 -369.28,824.82 -824.82,824.82 -455.54,0 -824.82,-369.28 -824.82,-824.82 0,-455.54 369.28,-824.82 824.82,-824.82zm-433.93 1075.6l-7.67 0 -219.66 -483.15 117.56 0 109.77 254.5 110.77 -254.5 108.9 0 -219.67 483.15zm335.93 -483.15l0 255.71c0,41.08 7.56,71.87 22.68,92.24 15.01,20.49 37.91,30.68 68.58,30.68 29.47,0 52.04,-9.53 67.49,-28.59 15.56,-18.96 23.34,-46.68 23.34,-83.05l0 -266.99 99.25 0 0 266.99c0,67.16 -17.2,119.64 -51.71,157.22 -34.4,37.57 -82.27,56.31 -143.52,56.31 -61.9,0 -109.99,-18.63 -144.39,-55.88 -34.3,-37.25 -51.5,-89.61 -51.5,-156.99l0 -267.65 109.78 0zm515.38 483.15l-7.66 0 -219.67 -483.15 117.56 0 109.77 254.5 110.77 -254.5 108.9 0 -219.67 483.15z"/>
 </g>
</svg>
