<?xml version="1.0" encoding="UTF-8"?>
<!DOCTYPE svg PUBLIC "-//W3C//DTD SVG 1.1//EN" "http://www.w3.org/Graphics/SVG/1.1/DTD/svg11.dtd">
<!-- Creator: CorelDRAW 2021.5 -->
<svg xmlns="http://www.w3.org/2000/svg" xml:space="preserve" width="1652px" height="1652px" version="1.1" style="shape-rendering:geometricPrecision; text-rendering:geometricPrecision; image-rendering:optimizeQuality; fill-rule:evenodd; clip-rule:evenodd"
viewBox="0 0 1652 1652"
 xmlns:xlink="http://www.w3.org/1999/xlink"
 xmlns:xodm="http://www.corel.com/coreldraw/odm/2003">
 <defs>
  <style type="text/css">
   <![CDATA[
    .str0 {stroke:black;stroke-width:2.36;stroke-miterlimit:22.9256}
    .fil0 {fill:black}
   ]]>
  </style>
 </defs>
 <g id="Layer_x0020_1">
  <metadata id="CorelCorpID_0Corel-Layer"/>
  <path class="fil0 str0" d="M826 1.18c455.54,0 824.82,369.28 824.82,824.82 0,455.54 -369.28,824.82 -824.82,824.82 -455.54,0 -824.82,-369.28 -824.82,-824.82 0,-455.54 369.28,-824.82 824.82,-824.82zm-717.02 1057.85l96.63 -480.52 7.99 0 175.62 303.04 165.65 -303.04 8.33 0 97.29 480.52 -105.62 0 -39.44 -212.54 -124.89 229.63 -7.45 0 -134.1 -232.81 -40.87 215.72 -99.14 0zm678.29 -232.7c0,40.43 11.83,74.39 35.5,101.67 23.66,27.28 52.8,40.97 87.42,40.97 34.84,0 64.1,-13.58 87.65,-40.75 23.56,-27.28 35.28,-61.24 35.28,-101.89 0,-40.86 -11.72,-75.05 -35.28,-102.33 -23.55,-27.28 -52.81,-40.97 -87.65,-40.97 -34.62,0 -63.76,13.69 -87.42,40.97 -23.67,27.28 -35.5,61.47 -35.5,102.33zm-114.38 0c0,-34.51 5.92,-66.72 17.86,-96.74 11.83,-30.13 29.36,-56.97 52.48,-80.74 21.8,-22.68 47.22,-40.1 76.14,-52.15 28.81,-12.16 59.16,-18.19 90.82,-18.19 31.67,0 62.01,6.14 91.05,18.3 29.03,12.16 54.78,29.8 77.23,52.69 22.68,22.9 39.88,49.31 51.5,79.43 11.72,30.02 17.53,62.56 17.53,97.4 0,29.14 -4.06,56.53 -12.17,82.17 -8.21,25.63 -20.26,49.08 -36.37,70.33 -22.68,30.13 -50.5,53.58 -83.59,70.23 -33.09,16.76 -68.14,25.09 -105.18,25.09 -31.44,0 -61.57,-6.14 -90.38,-18.3 -28.81,-12.16 -54.34,-29.8 -76.58,-52.69 -23.12,-23.67 -40.65,-50.51 -52.48,-80.42 -11.94,-29.8 -17.86,-62.01 -17.86,-96.41zm652 -147.25l-15.11 0 0 124.24 20.15 0c28.05,0 49.41,-5.37 64.2,-16.21 14.79,-10.85 22.14,-26.4 22.14,-46.67 0,-21.26 -7.24,-36.7 -21.81,-46.56 -14.57,-9.87 -37.79,-14.8 -69.57,-14.8zm-126.21 379.95l0 -465.4 119.75 0c36.81,0 66.06,2.63 87.65,8 21.58,5.37 40.75,14.35 57.51,26.95 17.31,12.6 30.79,28.37 40.32,47.33 9.53,18.95 14.24,39 14.24,60.15 0,47.1 -16.76,84.35 -50.28,111.96 -33.42,27.61 -78.88,41.41 -136.29,41.41 -5.92,0 -10.41,0 -13.48,-0.1 -2.96,-0.11 -5.81,-0.33 -8.32,-0.55l0 170.25 -111.1 0z"/>
 </g>
</svg>
