<?xml version="1.0" encoding="UTF-8"?>
<!DOCTYPE svg PUBLIC "-//W3C//DTD SVG 1.1//EN" "http://www.w3.org/Graphics/SVG/1.1/DTD/svg11.dtd">
<!-- Creator: CorelDRAW 2021.5 -->
<svg xmlns="http://www.w3.org/2000/svg" xml:space="preserve" width="1652px" height="1652px" version="1.1" style="shape-rendering:geometricPrecision; text-rendering:geometricPrecision; image-rendering:optimizeQuality; fill-rule:evenodd; clip-rule:evenodd"
viewBox="0 0 1652 1652"
 xmlns:xlink="http://www.w3.org/1999/xlink"
 xmlns:xodm="http://www.corel.com/coreldraw/odm/2003">
 <defs>
  <style type="text/css">
   <![CDATA[
    .str0 {stroke:black;stroke-width:2.36;stroke-miterlimit:22.9256}
    .fil0 {fill:black}
   ]]>
  </style>
 </defs>
 <g id="Layer_x0020_1">
  <metadata id="CorelCorpID_0Corel-Layer"/>
  <path class="fil0 str0" d="M826 1.18c455.54,0 824.82,369.28 824.82,824.82 0,455.54 -369.28,824.82 -824.82,824.82 -455.54,0 -824.82,-369.28 -824.82,-824.82 0,-455.54 369.28,-824.82 824.82,-824.82zm-524.2 1057.85l0 -465.4 286.6 0 0 95.97 -178.8 0 0 84.14 153.16 0 0 95.32 -153.16 0 0 92.03 181.43 0 0 97.94 -289.23 0zm442.31 0l0 -368.11 -147.91 0 0 -97.29 406.24 0 0 97.29 -147.24 0 0 368.11 -111.09 0zm386.65 -84.14l46.23 0c22.13,0 39.66,-5.48 52.37,-16.32 12.71,-10.96 19.06,-25.86 19.06,-44.92 0,-18.63 -6.24,-32.98 -18.62,-43.17 -12.38,-10.19 -30.02,-15.23 -52.81,-15.23l-46.23 0 0 119.64zm0 -197.2l36.92 0c21.8,0 38.78,-4.82 51.16,-14.36 12.27,-9.53 18.41,-23 18.41,-40.31 0,-17.42 -5.81,-30.13 -17.53,-38.24 -11.61,-8.21 -29.8,-12.27 -54.67,-12.27l-34.29 0 0 105.18zm-101.23 281.34l0 -465.4 143.85 0c54.23,0 95.09,9.86 122.81,29.69 27.72,19.83 41.63,49.19 41.63,88.19 0,23.78 -6.35,43.94 -18.95,60.48 -12.71,16.65 -31.77,29.47 -57.3,38.67 28.38,6.47 50.51,19.61 66.61,39.66 16.11,20.05 24.11,44.48 24.11,73.3 0,44.7 -16.55,78.44 -49.63,101.23 -33.09,22.79 -82.06,34.18 -146.92,34.18l-126.21 0z"/>
 </g>
</svg>
