<?xml version="1.0" encoding="UTF-8"?>
<!DOCTYPE svg PUBLIC "-//W3C//DTD SVG 1.1//EN" "http://www.w3.org/Graphics/SVG/1.1/DTD/svg11.dtd">
<!-- Creator: CorelDRAW 2021.5 -->
<svg xmlns="http://www.w3.org/2000/svg" xml:space="preserve" width="1652px" height="1652px" version="1.1" style="shape-rendering:geometricPrecision; text-rendering:geometricPrecision; image-rendering:optimizeQuality; fill-rule:evenodd; clip-rule:evenodd"
viewBox="0 0 1652 1652"
 xmlns:xlink="http://www.w3.org/1999/xlink"
 xmlns:xodm="http://www.corel.com/coreldraw/odm/2003">
 <defs>
  <style type="text/css">
   <![CDATA[
    .str0 {stroke:black;stroke-width:2.36;stroke-miterlimit:22.9256}
    .fil0 {fill:black}
   ]]>
  </style>
 </defs>
 <g id="Layer_x0020_1">
  <metadata id="CorelCorpID_0Corel-Layer"/>
  <path class="fil0 str0" d="M826 1.18c455.54,0 824.82,369.28 824.82,824.82 0,455.54 -369.28,824.82 -824.82,824.82 -455.54,0 -824.82,-369.28 -824.82,-824.82 0,-455.54 369.28,-824.82 824.82,-824.82zm-496.92 1057.85l0 -368.11 -147.91 0 0 -97.29 406.24 0 0 97.29 -147.24 0 0 368.11 -111.09 0zm370.87 -232.7c0,40.43 11.84,74.39 35.5,101.67 23.66,27.28 52.81,40.97 87.43,40.97 34.84,0 64.09,-13.58 87.64,-40.75 23.56,-27.28 35.28,-61.24 35.28,-101.89 0,-40.86 -11.72,-75.05 -35.28,-102.33 -23.55,-27.28 -52.8,-40.97 -87.64,-40.97 -34.62,0 -63.77,13.69 -87.43,40.97 -23.66,27.28 -35.5,61.47 -35.5,102.33zm-114.37 0c0,-34.51 5.91,-66.72 17.85,-96.74 11.84,-30.13 29.37,-56.97 52.48,-80.74 21.8,-22.68 47.22,-40.1 76.14,-52.15 28.82,-12.16 59.16,-18.19 90.83,-18.19 31.66,0 62.01,6.14 91.04,18.3 29.03,12.16 54.78,29.8 77.24,52.69 22.68,22.9 39.88,49.31 51.49,79.43 11.72,30.02 17.53,62.56 17.53,97.4 0,29.14 -4.05,56.53 -12.16,82.17 -8.22,25.63 -20.27,49.08 -36.38,70.33 -22.67,30.13 -50.5,53.58 -83.59,70.23 -33.08,16.76 -68.14,25.09 -105.17,25.09 -31.45,0 -61.57,-6.14 -90.39,-18.3 -28.81,-12.16 -54.34,-29.8 -76.58,-52.69 -23.11,-23.67 -40.64,-50.51 -52.48,-80.42 -11.94,-29.8 -17.85,-62.01 -17.85,-96.41zm652 -147.25l-15.12 0 0 124.24 20.16 0c28.04,0 49.41,-5.37 64.2,-16.21 14.79,-10.85 22.13,-26.4 22.13,-46.67 0,-21.26 -7.23,-36.7 -21.8,-46.56 -14.58,-9.87 -37.8,-14.8 -69.57,-14.8zm-126.21 379.95l0 -465.4 119.74 0c36.81,0 66.07,2.63 87.65,8 21.58,5.37 40.75,14.35 57.52,26.95 17.31,12.6 30.78,28.37 40.31,47.33 9.54,18.95 14.25,39 14.25,60.15 0,47.1 -16.77,84.35 -50.29,111.96 -33.42,27.61 -78.88,41.41 -136.29,41.41 -5.92,0 -10.41,0 -13.48,-0.1 -2.95,-0.11 -5.8,-0.33 -8.32,-0.55l0 170.25 -111.09 0z"/>
 </g>
</svg>
