<?xml version="1.0" encoding="UTF-8"?>
<!DOCTYPE svg PUBLIC "-//W3C//DTD SVG 1.1//EN" "http://www.w3.org/Graphics/SVG/1.1/DTD/svg11.dtd">
<!-- Creator: CorelDRAW 2021.5 -->
<svg xmlns="http://www.w3.org/2000/svg" xml:space="preserve" width="1652px" height="1652px" version="1.1" style="shape-rendering:geometricPrecision; text-rendering:geometricPrecision; image-rendering:optimizeQuality; fill-rule:evenodd; clip-rule:evenodd"
viewBox="0 0 1652 1652"
 xmlns:xlink="http://www.w3.org/1999/xlink"
 xmlns:xodm="http://www.corel.com/coreldraw/odm/2003">
 <defs>
  <style type="text/css">
   <![CDATA[
    .str0 {stroke:black;stroke-width:2.36;stroke-miterlimit:22.9256}
    .fil0 {fill:black}
   ]]>
  </style>
 </defs>
 <g id="Layer_x0020_1">
  <metadata id="CorelCorpID_0Corel-Layer"/>
  <path class="fil0 str0" d="M826 1.18c455.54,0 824.82,369.28 824.82,824.82 0,455.54 -369.28,824.82 -824.82,824.82 -455.54,0 -824.82,-369.28 -824.82,-824.82 0,-455.54 369.28,-824.82 824.82,-824.82zm-531.1 973.71l46.23 0c22.13,0 39.66,-5.48 52.37,-16.32 12.71,-10.96 19.06,-25.86 19.06,-44.92 0,-18.63 -6.24,-32.98 -18.62,-43.17 -12.38,-10.19 -30.02,-15.23 -52.81,-15.23l-46.23 0 0 119.64zm0 -197.2l36.92 0c21.8,0 38.78,-4.82 51.16,-14.36 12.27,-9.53 18.41,-23 18.41,-40.31 0,-17.42 -5.81,-30.13 -17.53,-38.24 -11.62,-8.21 -29.8,-12.27 -54.67,-12.27l-34.29 0 0 105.18zm-101.23 281.34l0 -465.4 143.84 0c54.23,0 95.1,9.86 122.82,29.69 27.72,19.83 41.63,49.19 41.63,88.19 0,23.78 -6.35,43.94 -18.95,60.48 -12.71,16.65 -31.78,29.47 -57.3,38.67 28.37,6.47 50.5,19.61 66.61,39.66 16.1,20.05 24.1,44.48 24.1,73.3 0,44.7 -16.54,78.44 -49.63,101.23 -33.09,22.79 -82.06,34.18 -146.91,34.18l-126.21 0zm771.63 -258.34l0 226.24c-31.22,15.67 -61.68,27.39 -91.26,35.28 -29.69,7.99 -58.39,11.94 -86.22,11.94 -70.88,0 -129.61,-23.34 -176.39,-70.12 -46.78,-46.78 -70.11,-105.83 -70.11,-177.04 0,-71.98 23.66,-131.47 71.1,-178.47 47.44,-47.11 107.36,-70.67 180,-70.67 27.39,0 53.47,3.73 78.33,11.29 24.76,7.45 48.65,18.84 71.55,33.96l-11.95 116.46c-21.58,-21.8 -43.05,-37.8 -64.42,-47.88 -21.47,-10.18 -43.93,-15.22 -67.48,-15.22 -41.75,0 -76.26,13.91 -103.65,41.85 -27.38,27.93 -41.08,62.88 -41.08,104.73 0,44.15 13.26,80.09 39.66,108.03 26.4,27.93 60.48,41.85 102.11,41.85 9.64,0 19.39,-0.88 29.25,-2.52 9.86,-1.76 20.05,-4.17 30.79,-7.45l0 -67.6 -88.09 0 0 -94.66 197.86 0zm65.87 258.34l0 -480.52 10.63 0 289.78 271.59 0 -256.47 102.54 0 0 483.15 -9.64 0 -290.76 -271.59 0 253.84 -102.55 0z"/>
 </g>
</svg>
