<?xml version="1.0" encoding="UTF-8"?>
<!DOCTYPE svg PUBLIC "-//W3C//DTD SVG 1.1//EN" "http://www.w3.org/Graphics/SVG/1.1/DTD/svg11.dtd">
<!-- Creator: CorelDRAW 2021.5 -->
<svg xmlns="http://www.w3.org/2000/svg" xml:space="preserve" width="1652px" height="1652px" version="1.1" style="shape-rendering:geometricPrecision; text-rendering:geometricPrecision; image-rendering:optimizeQuality; fill-rule:evenodd; clip-rule:evenodd"
viewBox="0 0 1652 1652"
 xmlns:xlink="http://www.w3.org/1999/xlink"
 xmlns:xodm="http://www.corel.com/coreldraw/odm/2003">
 <defs>
  <style type="text/css">
   <![CDATA[
    .str0 {stroke:black;stroke-width:2.36;stroke-miterlimit:22.9256}
    .fil0 {fill:black}
   ]]>
  </style>
 </defs>
 <g id="Layer_x0020_1">
  <metadata id="CorelCorpID_0Corel-Layer"/>
  <path class="fil0 str0" d="M826 1.18c455.54,0 824.82,369.28 824.82,824.82 0,455.54 -369.28,824.82 -824.82,824.82 -455.54,0 -824.82,-369.28 -824.82,-824.82 0,-455.54 369.28,-824.82 824.82,-824.82zm-623.24 1057.85l231.38 -368.11 -207.72 0 17.64 -97.29 369.54 0 -230.84 366.8 230.84 0 -17.64 98.6 -393.2 0zm556.79 -147.9l122.27 0 -60.37 -145.71 -61.9 145.71zm-174.19 147.9l237.41 -479.86 7.01 0 232.15 479.86 -116.24 0 -29.47 -67.71 -188.88 0 -30.13 67.71 -111.85 0zm611.24 -380.6l-18.29 0 0 128.84 23.44 0c28.05,0 49.41,-5.7 64.2,-16.98 14.79,-11.29 22.13,-27.61 22.13,-48.76 0,-22.24 -7.12,-38.23 -21.47,-48.2 -14.35,-9.97 -37.69,-14.9 -70.01,-14.9zm-126.1 380.6l0 -465.4 119.64 0c38.34,0 68.03,2.52 89.18,7.56 21.14,5.04 39.77,13.37 56.09,25.2 17.31,12.38 30.79,27.72 40.32,46.01 9.53,18.3 14.24,37.58 14.24,57.85 0,29.36 -7.45,55 -22.35,77.02 -14.9,22.02 -36.37,39.22 -64.42,51.71l141.99 200.05 -126.87 0 -124.24 -182.74 -15.77 0 0 182.74 -107.81 0z"/>
 </g>
</svg>
