<?xml version="1.0" encoding="UTF-8"?>
<!DOCTYPE svg PUBLIC "-//W3C//DTD SVG 1.1//EN" "http://www.w3.org/Graphics/SVG/1.1/DTD/svg11.dtd">
<!-- Creator: CorelDRAW 2021.5 -->
<svg xmlns="http://www.w3.org/2000/svg" xml:space="preserve" width="1652px" height="1652px" version="1.1" style="shape-rendering:geometricPrecision; text-rendering:geometricPrecision; image-rendering:optimizeQuality; fill-rule:evenodd; clip-rule:evenodd"
viewBox="0 0 1652 1652"
 xmlns:xlink="http://www.w3.org/1999/xlink"
 xmlns:xodm="http://www.corel.com/coreldraw/odm/2003">
 <defs>
  <style type="text/css">
   <![CDATA[
    .str0 {stroke:black;stroke-width:2.36;stroke-miterlimit:22.9256}
    .fil0 {fill:black}
   ]]>
  </style>
 </defs>
 <g id="Layer_x0020_1">
  <metadata id="CorelCorpID_0Corel-Layer"/>
  <path class="fil0 str0" d="M826 1.18c455.54,0 824.82,369.28 824.82,824.82 0,455.54 -369.28,824.82 -824.82,824.82 -455.54,0 -824.82,-369.28 -824.82,-824.82 0,-455.54 369.28,-824.82 824.82,-824.82zm-617.93 926.38c28.6,17.53 52.92,29.69 72.97,36.81 19.94,7.01 39.44,10.52 58.5,10.52 19.17,0 34.62,-4.27 46.34,-12.71 11.62,-8.44 17.42,-19.28 17.42,-32.54 0,-18.95 -20.7,-40.42 -62.23,-64.09 -6.68,-3.83 -11.83,-6.9 -15.44,-8.98l-31.45 -17.75c-30.56,-17.31 -53.24,-36.92 -67.92,-58.72 -14.79,-21.8 -22.13,-46.56 -22.13,-74.17 0,-37.47 14.13,-68.15 42.4,-92.14 28.15,-23.99 64.64,-35.94 109.33,-35.94 16.55,0 34.41,1.98 53.58,5.81 19.28,3.83 40.64,9.86 64.2,17.97l0 109.01c-22.46,-14.03 -43.71,-24.87 -63.87,-32.54 -20.16,-7.67 -37.25,-11.5 -51.39,-11.5 -15.66,0 -27.93,3.39 -36.92,10.07 -8.98,6.69 -13.47,15.89 -13.47,27.39 0,8.11 2.63,15.67 8,22.68 5.36,7.12 13.36,13.48 24.1,19.28l54.56 30.13c45.68,25.31 76.36,48.65 92.14,70.01 15.77,21.47 23.66,46.78 23.66,76.14 0,45.36 -15.45,82.06 -46.34,110 -31.01,27.94 -71.98,41.85 -123.14,41.85 -17.31,0 -36.16,-1.86 -56.54,-5.48 -20.26,-3.61 -42.72,-9.31 -67.05,-16.98l-9.31 -124.13zm751.92 -126.87l0 226.24c-31.22,15.67 -61.68,27.39 -91.26,35.28 -29.69,7.99 -58.4,11.94 -86.22,11.94 -70.89,0 -129.61,-23.34 -176.39,-70.12 -46.78,-46.78 -70.12,-105.83 -70.12,-177.04 0,-71.98 23.67,-131.47 71.11,-178.47 47.43,-47.11 107.36,-70.67 180,-70.67 27.39,0 53.46,3.73 78.33,11.29 24.76,7.45 48.65,18.84 71.54,33.96l-11.94 116.46c-21.58,-21.8 -43.06,-37.8 -64.42,-47.88 -21.47,-10.18 -43.93,-15.22 -67.49,-15.22 -41.74,0 -76.25,13.91 -103.64,41.85 -27.39,27.93 -41.08,62.88 -41.08,104.73 0,44.15 13.25,80.09 39.66,108.03 26.4,27.93 60.47,41.85 102.11,41.85 9.64,0 19.39,-0.88 29.25,-2.52 9.86,-1.76 20.05,-4.17 30.78,-7.45l0 -67.6 -88.08 0 0 -94.66 197.86 0zm175.64 158.42l24.44 0c48.53,0 86.55,-11.72 113.94,-35.27 27.39,-23.56 41.08,-55.99 41.08,-97.51 0,-41.52 -13.69,-74.06 -41.08,-97.83 -27.39,-23.78 -65.41,-35.61 -113.94,-35.61l-24.44 0 0 266.22zm-109.77 99.92l0 -465.4 123.58 0c86.88,0 155.02,20.71 204.21,62.23 49.2,41.52 73.85,98.38 73.85,170.47 0,43.17 -9.75,81.62 -29.26,115.03 -19.39,33.53 -47.98,61.03 -85.67,82.72 -21.47,12.38 -44.7,21.26 -69.9,26.73 -25.09,5.48 -56.2,8.22 -93.23,8.22l-123.58 0z"/>
 </g>
</svg>
