<?xml version="1.0" encoding="UTF-8"?>
<!DOCTYPE svg PUBLIC "-//W3C//DTD SVG 1.1//EN" "http://www.w3.org/Graphics/SVG/1.1/DTD/svg11.dtd">
<!-- Creator: CorelDRAW 2021.5 -->
<svg xmlns="http://www.w3.org/2000/svg" xml:space="preserve" width="1652px" height="1652px" version="1.1" style="shape-rendering:geometricPrecision; text-rendering:geometricPrecision; image-rendering:optimizeQuality; fill-rule:evenodd; clip-rule:evenodd"
viewBox="0 0 1652 1652"
 xmlns:xlink="http://www.w3.org/1999/xlink"
 xmlns:xodm="http://www.corel.com/coreldraw/odm/2003">
 <defs>
  <style type="text/css">
   <![CDATA[
    .str0 {stroke:black;stroke-width:2.36;stroke-miterlimit:22.9256}
    .fil0 {fill:black}
   ]]>
  </style>
 </defs>
 <g id="Layer_x0020_1">
  <metadata id="CorelCorpID_0Corel-Layer"/>
  <path class="fil0 str0" d="M826 1.18c455.54,0 824.82,369.28 824.82,824.82 0,455.54 -369.28,824.82 -824.82,824.82 -455.54,0 -824.82,-369.28 -824.82,-824.82 0,-455.54 369.28,-824.82 824.82,-824.82zm-198.71 739.7c-20.16,-20.71 -40.53,-36.05 -61.13,-46.13 -20.71,-9.97 -42.4,-15.01 -65.08,-15.01 -39.33,0 -71.54,13.59 -96.52,40.76 -25.09,27.17 -37.58,62.12 -37.58,104.62 0,42.62 12.38,77.13 37.25,103.54 24.76,26.4 57.08,39.66 96.96,39.66 23.56,0 47,-4.93 70.45,-14.79 23.44,-9.86 46.78,-24.65 70.11,-44.38l-7.12 123.59c-19.94,13.47 -41.63,23.77 -65.29,30.78 -23.67,7.12 -48.21,10.63 -73.74,10.63 -27.38,0 -53.57,-4.27 -78.77,-12.82 -25.09,-8.54 -48.31,-21.25 -69.46,-37.91 -30.02,-23.55 -52.91,-52.26 -68.91,-86.22 -15.88,-33.85 -23.88,-70.88 -23.88,-110.87 0,-34.51 5.91,-66.83 17.64,-96.96 11.83,-30.13 28.92,-56.86 51.38,-79.98 22.68,-23.11 48.86,-40.75 78.66,-53.13 29.69,-12.27 61.03,-18.41 94,-18.41 26.19,0 51.06,3.62 74.83,10.96 23.77,7.23 46.45,18.3 68.03,33.09l-11.83 118.98zm218.7 335.9l-7.66 0 -219.67 -483.15 117.56 0 109.77 254.5 110.77 -254.5 108.9 0 -219.67 483.15zm230.76 -17.75l0 -465.4 286.6 0 0 95.97 -178.8 0 0 84.14 153.16 0 0 95.32 -153.16 0 0 92.03 181.43 0 0 97.94 -289.23 0z"/>
 </g>
</svg>
