<?xml version="1.0" encoding="UTF-8"?>
<!DOCTYPE svg PUBLIC "-//W3C//DTD SVG 1.1//EN" "http://www.w3.org/Graphics/SVG/1.1/DTD/svg11.dtd">
<!-- Creator: CorelDRAW 2021.5 -->
<svg xmlns="http://www.w3.org/2000/svg" xml:space="preserve" width="1652px" height="1652px" version="1.1" style="shape-rendering:geometricPrecision; text-rendering:geometricPrecision; image-rendering:optimizeQuality; fill-rule:evenodd; clip-rule:evenodd"
viewBox="0 0 1652 1652"
 xmlns:xlink="http://www.w3.org/1999/xlink"
 xmlns:xodm="http://www.corel.com/coreldraw/odm/2003">
 <defs>
  <style type="text/css">
   <![CDATA[
    .str0 {stroke:black;stroke-width:2.36;stroke-miterlimit:22.9256}
    .fil0 {fill:black}
   ]]>
  </style>
 </defs>
 <g id="Layer_x0020_1">
  <metadata id="CorelCorpID_0Corel-Layer"/>
  <path class="fil0 str0" d="M826 1.18c455.54,0 824.82,369.28 824.82,824.82 0,455.54 -369.28,824.82 -824.82,824.82 -455.54,0 -824.82,-369.28 -824.82,-824.82 0,-455.54 369.28,-824.82 824.82,-824.82zm-651.13 1057.85l167.19 -240.7 -164.88 -224.7 135.63 0 95.97 132.89 90.17 -132.89 120.95 0 -149.88 215.06 183.4 250.34 -136.73 0 -113.06 -157.87 -107.15 157.87 -121.61 0zm562.94 -232.7c0,40.43 11.83,74.39 35.49,101.67 23.67,27.28 52.81,40.97 87.43,40.97 34.84,0 64.09,-13.58 87.65,-40.75 23.55,-27.28 35.27,-61.24 35.27,-101.89 0,-40.86 -11.72,-75.05 -35.27,-102.33 -23.56,-27.28 -52.81,-40.97 -87.65,-40.97 -34.62,0 -63.76,13.69 -87.43,40.97 -23.66,27.28 -35.49,61.47 -35.49,102.33zm-114.38 0c0,-34.51 5.91,-66.72 17.86,-96.74 11.83,-30.13 29.36,-56.97 52.47,-80.74 21.81,-22.68 47.22,-40.1 76.15,-52.15 28.81,-12.16 59.16,-18.19 90.82,-18.19 31.66,0 62.01,6.14 91.04,18.3 29.04,12.16 54.78,29.8 77.24,52.69 22.68,22.9 39.88,49.31 51.49,79.43 11.72,30.02 17.53,62.56 17.53,97.4 0,29.14 -4.05,56.53 -12.16,82.17 -8.22,25.63 -20.27,49.08 -36.37,70.33 -22.68,30.13 -50.51,53.58 -83.59,70.23 -33.09,16.76 -68.15,25.09 -105.18,25.09 -31.44,0 -61.57,-6.14 -90.38,-18.3 -28.82,-12.16 -54.35,-29.8 -76.59,-52.69 -23.11,-23.67 -40.64,-50.51 -52.47,-80.42 -11.95,-29.8 -17.86,-62.01 -17.86,-96.41zm525.79 232.7l0 -465.4 289.23 0 0 94.66 -178.8 0 0 92.68 159.74 0 0 94 -159.74 0 0 184.06 -110.43 0z"/>
 </g>
</svg>
