<?xml version="1.0" encoding="UTF-8"?>
<!DOCTYPE svg PUBLIC "-//W3C//DTD SVG 1.1//EN" "http://www.w3.org/Graphics/SVG/1.1/DTD/svg11.dtd">
<!-- Creator: CorelDRAW 2021.5 -->
<svg xmlns="http://www.w3.org/2000/svg" xml:space="preserve" width="1652px" height="1652px" version="1.1" style="shape-rendering:geometricPrecision; text-rendering:geometricPrecision; image-rendering:optimizeQuality; fill-rule:evenodd; clip-rule:evenodd"
viewBox="0 0 1652 1652"
 xmlns:xlink="http://www.w3.org/1999/xlink"
 xmlns:xodm="http://www.corel.com/coreldraw/odm/2003">
 <defs>
  <style type="text/css">
   <![CDATA[
    .str0 {stroke:black;stroke-width:2.36;stroke-miterlimit:22.9256}
    .fil0 {fill:black}
   ]]>
  </style>
 </defs>
 <g id="Layer_x0020_1">
  <metadata id="CorelCorpID_0Corel-Layer"/>
  <path class="fil0 str0" d="M826 1.18c455.54,0 824.82,369.28 824.82,824.82 0,455.54 -369.28,824.82 -824.82,824.82 -455.54,0 -824.82,-369.28 -824.82,-824.82 0,-455.54 369.28,-824.82 824.82,-824.82zm-521.57 960.56c11.72,5.15 22.57,9.1 32.43,11.73 9.75,2.73 18.4,4.05 25.96,4.05 22.02,0 37.69,-7.23 47.11,-21.69 9.42,-14.47 14.13,-39.01 14.13,-73.63l0 -288.57 111.75 0 0 314.87c0,53.68 -13.8,94.76 -41.41,123.14 -27.61,28.38 -67.49,42.51 -119.64,42.51 -9.86,0 -19.72,-0.66 -29.47,-1.97 -9.64,-1.21 -19.83,-3.18 -30.24,-5.7l-10.62 -104.74zm429.16 -282.66l-15.12 0 0 124.24 20.16 0c28.04,0 49.41,-5.37 64.2,-16.21 14.79,-10.85 22.13,-26.4 22.13,-46.67 0,-21.26 -7.23,-36.7 -21.8,-46.56 -14.57,-9.87 -37.8,-14.8 -69.57,-14.8zm-126.21 379.95l0 -465.4 119.74 0c36.82,0 66.07,2.63 87.65,8 21.58,5.37 40.76,14.35 57.52,26.95 17.31,12.6 30.78,28.37 40.32,47.33 9.53,18.95 14.24,39 14.24,60.15 0,47.1 -16.76,84.35 -50.29,111.96 -33.41,27.61 -78.88,41.41 -136.29,41.41 -5.92,0 -10.41,0 -13.47,-0.1 -2.96,-0.11 -5.81,-0.33 -8.33,-0.55l0 170.25 -111.09 0zm452.17 0l0 -220.87 -166.31 -244.53 134.1 0 97.17 147.36 107.15 -147.36 117.78 0 -179.46 240.04 0 225.36 -110.43 0z"/>
 </g>
</svg>
