<?xml version="1.0" encoding="UTF-8"?>
<!DOCTYPE svg PUBLIC "-//W3C//DTD SVG 1.1//EN" "http://www.w3.org/Graphics/SVG/1.1/DTD/svg11.dtd">
<!-- Creator: CorelDRAW 2021.5 -->
<svg xmlns="http://www.w3.org/2000/svg" xml:space="preserve" width="1652px" height="1652px" version="1.1" style="shape-rendering:geometricPrecision; text-rendering:geometricPrecision; image-rendering:optimizeQuality; fill-rule:evenodd; clip-rule:evenodd"
viewBox="0 0 1652 1652"
 xmlns:xlink="http://www.w3.org/1999/xlink"
 xmlns:xodm="http://www.corel.com/coreldraw/odm/2003">
 <defs>
  <style type="text/css">
   <![CDATA[
    .str0 {stroke:black;stroke-width:2.36;stroke-miterlimit:22.9256}
    .fil0 {fill:black}
   ]]>
  </style>
 </defs>
 <g id="Layer_x0020_1">
  <metadata id="CorelCorpID_0Corel-Layer"/>
  <path class="fil0 str0" d="M826 1.18c455.54,0 824.82,369.28 824.82,824.82 0,455.54 -369.28,824.82 -824.82,824.82 -455.54,0 -824.82,-369.28 -824.82,-824.82 0,-455.54 369.28,-824.82 824.82,-824.82zm-537.95 592.45l0 255.71c0,41.08 7.56,71.87 22.68,92.24 15.01,20.49 37.9,30.68 68.58,30.68 29.47,0 52.04,-9.53 67.49,-28.59 15.55,-18.96 23.33,-46.68 23.33,-83.05l0 -266.99 99.26 0 0 266.99c0,67.16 -17.2,119.64 -51.71,157.22 -34.4,37.57 -82.28,56.31 -143.52,56.31 -61.9,0 -109.99,-18.63 -144.4,-55.88 -34.29,-37.25 -51.49,-89.61 -51.49,-156.99l0 -267.65 109.78 0zm446.8 317.5l122.27 0 -60.37 -145.71 -61.9 145.71zm-174.2 147.9l237.41 -479.86 7.02 0 232.15 479.86 -116.24 0 -29.47 -67.71 -188.88 0 -30.13 67.71 -111.86 0zm485.15 0l0 -465.4 109.77 0 0 170.91 179.46 0 0 -170.91 109.12 0 0 465.4 -109.12 0 0 -195.23 -179.46 0 0 195.23 -109.77 0z"/>
 </g>
</svg>
