<?xml version="1.0" encoding="UTF-8"?>
<!DOCTYPE svg PUBLIC "-//W3C//DTD SVG 1.1//EN" "http://www.w3.org/Graphics/SVG/1.1/DTD/svg11.dtd">
<!-- Creator: CorelDRAW 2021.5 -->
<svg xmlns="http://www.w3.org/2000/svg" xml:space="preserve" width="1652px" height="1652px" version="1.1" style="shape-rendering:geometricPrecision; text-rendering:geometricPrecision; image-rendering:optimizeQuality; fill-rule:evenodd; clip-rule:evenodd"
viewBox="0 0 1652 1652"
 xmlns:xlink="http://www.w3.org/1999/xlink"
 xmlns:xodm="http://www.corel.com/coreldraw/odm/2003">
 <defs>
  <style type="text/css">
   <![CDATA[
    .str0 {stroke:black;stroke-width:2.36;stroke-miterlimit:22.9256}
    .fil0 {fill:black}
   ]]>
  </style>
 </defs>
 <g id="Layer_x0020_1">
  <metadata id="CorelCorpID_0Corel-Layer"/>
  <path class="fil0 str0" d="M826 1.18c455.54,0 824.82,369.28 824.82,824.82 0,455.54 -369.28,824.82 -824.82,824.82 -455.54,0 -824.82,-369.28 -824.82,-824.82 0,-455.54 369.28,-824.82 824.82,-824.82zm-735.81 1057.85l96.63 -480.52 7.99 0 175.63 303.04 165.65 -303.04 8.32 0 97.29 480.52 -105.61 0 -39.44 -212.54 -124.9 229.63 -7.45 0 -134.1 -232.81 -40.86 215.72 -99.15 0zm550.77 0l231.38 -368.11 -207.72 0 17.64 -97.29 369.54 0 -230.84 366.8 230.84 0 -17.64 98.6 -393.2 0zm455.56 0l0 -480.52 10.63 0 289.78 271.59 0 -256.47 102.55 0 0 483.15 -9.65 0 -290.76 -271.59 0 253.84 -102.55 0z"/>
 </g>
</svg>
