<?xml version="1.0" encoding="UTF-8"?>
<!DOCTYPE svg PUBLIC "-//W3C//DTD SVG 1.1//EN" "http://www.w3.org/Graphics/SVG/1.1/DTD/svg11.dtd">
<!-- Creator: CorelDRAW 2021.5 -->
<svg xmlns="http://www.w3.org/2000/svg" xml:space="preserve" width="1652px" height="1652px" version="1.1" style="shape-rendering:geometricPrecision; text-rendering:geometricPrecision; image-rendering:optimizeQuality; fill-rule:evenodd; clip-rule:evenodd"
viewBox="0 0 1652 1652"
 xmlns:xlink="http://www.w3.org/1999/xlink"
 xmlns:xodm="http://www.corel.com/coreldraw/odm/2003">
 <defs>
  <style type="text/css">
   <![CDATA[
    .str0 {stroke:black;stroke-width:2.36;stroke-miterlimit:22.9256}
    .fil0 {fill:black}
   ]]>
  </style>
 </defs>
 <g id="Layer_x0020_1">
  <metadata id="CorelCorpID_0Corel-Layer"/>
  <path class="fil0 str0" d="M826 1.18c455.54,0 824.82,369.28 824.82,824.82 0,455.54 -369.28,824.82 -824.82,824.82 -455.54,0 -824.82,-369.28 -824.82,-824.82 0,-455.54 369.28,-824.82 824.82,-824.82zm-632.17 1057.85l0 -465.4 109.78 0 0 170.91 179.45 0 0 -170.91 109.12 0 0 465.4 -109.12 0 0 -195.23 -179.45 0 0 195.23 -109.78 0zm573.89 0l0 -368.11 -147.91 0 0 -97.29 406.24 0 0 97.29 -147.24 0 0 368.11 -111.09 0zm680.48 -258.34l0 226.24c-31.22,15.67 -61.68,27.39 -91.26,35.28 -29.69,7.99 -58.39,11.94 -86.22,11.94 -70.89,0 -129.61,-23.34 -176.39,-70.12 -46.78,-46.78 -70.12,-105.83 -70.12,-177.04 0,-71.98 23.67,-131.47 71.11,-178.47 47.44,-47.11 107.36,-70.67 180,-70.67 27.39,0 53.46,3.73 78.33,11.29 24.76,7.45 48.65,18.84 71.54,33.96l-11.94 116.46c-21.58,-21.8 -43.05,-37.8 -64.42,-47.88 -21.47,-10.18 -43.93,-15.22 -67.48,-15.22 -41.75,0 -76.26,13.91 -103.65,41.85 -27.38,27.93 -41.08,62.88 -41.08,104.73 0,44.15 13.26,80.09 39.66,108.03 26.4,27.93 60.48,41.85 102.11,41.85 9.64,0 19.39,-0.88 29.25,-2.52 9.86,-1.76 20.05,-4.17 30.78,-7.45l0 -67.6 -88.08 0 0 -94.66 197.86 0z"/>
 </g>
</svg>
