<?xml version="1.0" encoding="UTF-8"?>
<!DOCTYPE svg PUBLIC "-//W3C//DTD SVG 1.1//EN" "http://www.w3.org/Graphics/SVG/1.1/DTD/svg11.dtd">
<!-- Creator: CorelDRAW 2021.5 -->
<svg xmlns="http://www.w3.org/2000/svg" xml:space="preserve" width="1652px" height="1652px" version="1.1" style="shape-rendering:geometricPrecision; text-rendering:geometricPrecision; image-rendering:optimizeQuality; fill-rule:evenodd; clip-rule:evenodd"
viewBox="0 0 1652 1652"
 xmlns:xlink="http://www.w3.org/1999/xlink"
 xmlns:xodm="http://www.corel.com/coreldraw/odm/2003">
 <defs>
  <style type="text/css">
   <![CDATA[
    .str0 {stroke:black;stroke-width:2.36;stroke-miterlimit:22.9256}
    .fil0 {fill:black}
   ]]>
  </style>
 </defs>
 <g id="Layer_x0020_1">
  <metadata id="CorelCorpID_0Corel-Layer"/>
  <path class="fil0 str0" d="M826 1.18c455.54,0 824.82,369.28 824.82,824.82 0,455.54 -369.28,824.82 -824.82,824.82 -455.54,0 -824.82,-369.28 -824.82,-824.82 0,-455.54 369.28,-824.82 824.82,-824.82zm-531.43 909.95l122.26 0 -60.36 -145.71 -61.9 145.71zm-174.2 147.9l237.41 -479.86 7.01 0 232.15 479.86 -116.24 0 -29.47 -67.71 -188.87 0 -30.13 67.71 -111.86 0zm570.6 -232.7c0,40.43 11.83,74.39 35.5,101.67 23.66,27.28 52.8,40.97 87.42,40.97 34.84,0 64.1,-13.58 87.65,-40.75 23.56,-27.28 35.28,-61.24 35.28,-101.89 0,-40.86 -11.72,-75.05 -35.28,-102.33 -23.55,-27.28 -52.81,-40.97 -87.65,-40.97 -34.62,0 -63.76,13.69 -87.42,40.97 -23.67,27.28 -35.5,61.47 -35.5,102.33zm-114.38 0c0,-34.51 5.92,-66.72 17.86,-96.74 11.83,-30.13 29.36,-56.97 52.48,-80.74 21.8,-22.68 47.22,-40.1 76.14,-52.15 28.81,-12.16 59.16,-18.19 90.82,-18.19 31.67,0 62.01,6.14 91.05,18.3 29.03,12.16 54.78,29.8 77.23,52.69 22.68,22.9 39.88,49.31 51.5,79.43 11.72,30.02 17.53,62.56 17.53,97.4 0,29.14 -4.06,56.53 -12.17,82.17 -8.21,25.63 -20.26,49.08 -36.37,70.33 -22.68,30.13 -50.5,53.58 -83.59,70.23 -33.09,16.76 -68.14,25.09 -105.18,25.09 -31.44,0 -61.57,-6.14 -90.38,-18.3 -28.81,-12.16 -54.34,-29.8 -76.58,-52.69 -23.12,-23.67 -40.65,-50.51 -52.48,-80.42 -11.94,-29.8 -17.86,-62.01 -17.86,-96.41zm627.02 84.8l122.27 0 -60.36 -145.71 -61.91 145.71zm-174.19 147.9l237.41 -479.86 7.01 0 232.15 479.86 -116.24 0 -29.47 -67.71 -188.88 0 -30.12 67.71 -111.86 0z"/>
 </g>
</svg>
