<?xml version="1.0" encoding="UTF-8"?>
<!DOCTYPE svg PUBLIC "-//W3C//DTD SVG 1.1//EN" "http://www.w3.org/Graphics/SVG/1.1/DTD/svg11.dtd">
<!-- Creator: CorelDRAW 2021.5 -->
<svg xmlns="http://www.w3.org/2000/svg" xml:space="preserve" width="1652px" height="1652px" version="1.1" style="shape-rendering:geometricPrecision; text-rendering:geometricPrecision; image-rendering:optimizeQuality; fill-rule:evenodd; clip-rule:evenodd"
viewBox="0 0 1652 1652"
 xmlns:xlink="http://www.w3.org/1999/xlink"
 xmlns:xodm="http://www.corel.com/coreldraw/odm/2003">
 <defs>
  <style type="text/css">
   <![CDATA[
    .str0 {stroke:black;stroke-width:2.36;stroke-miterlimit:22.9256}
    .fil0 {fill:black}
   ]]>
  </style>
 </defs>
 <g id="Layer_x0020_1">
  <metadata id="CorelCorpID_0Corel-Layer"/>
  <path class="fil0 str0" d="M826 1.18c455.54,0 824.82,369.28 824.82,824.82 0,455.54 -369.28,824.82 -824.82,824.82 -455.54,0 -824.82,-369.28 -824.82,-824.82 0,-455.54 369.28,-824.82 824.82,-824.82zm-171.76 739.7c-20.15,-20.71 -40.53,-36.05 -61.13,-46.13 -20.71,-9.97 -42.4,-15.01 -65.08,-15.01 -39.33,0 -71.54,13.59 -96.52,40.76 -25.08,27.17 -37.57,62.12 -37.57,104.62 0,42.62 12.38,77.13 37.24,103.54 24.76,26.4 57.08,39.66 96.96,39.66 23.56,0 47,-4.93 70.45,-14.79 23.44,-9.86 46.78,-24.65 70.12,-44.38l-7.13 123.59c-19.93,13.47 -41.63,23.77 -65.29,30.78 -23.67,7.12 -48.21,10.63 -73.73,10.63 -27.39,0 -53.58,-4.27 -78.78,-12.82 -25.08,-8.54 -48.31,-21.25 -69.45,-37.91 -30.02,-23.55 -52.92,-52.26 -68.92,-86.22 -15.88,-33.85 -23.88,-70.88 -23.88,-110.87 0,-34.51 5.92,-66.83 17.64,-96.96 11.83,-30.13 28.92,-56.86 51.38,-79.98 22.68,-23.11 48.86,-40.75 78.66,-53.13 29.69,-12.27 61.03,-18.41 94,-18.41 26.19,0 51.06,3.62 74.83,10.96 23.78,7.23 46.45,18.3 68.04,33.09l-11.84 118.98zm60.4 318.15l0 -465.4 111.09 0 0 365.48 181.42 0 0 99.92 -292.51 0zm446.9 -379.95l-15.11 0 0 124.24 20.15 0c28.05,0 49.41,-5.37 64.2,-16.21 14.79,-10.85 22.14,-26.4 22.14,-46.67 0,-21.26 -7.24,-36.7 -21.81,-46.56 -14.57,-9.87 -37.79,-14.8 -69.57,-14.8zm-126.2 379.95l0 -465.4 119.74 0c36.81,0 66.06,2.63 87.65,8 21.58,5.37 40.75,14.35 57.51,26.95 17.31,12.6 30.79,28.37 40.32,47.33 9.53,18.95 14.24,39 14.24,60.15 0,47.1 -16.76,84.35 -50.28,111.96 -33.42,27.61 -78.88,41.41 -136.29,41.41 -5.92,0 -10.41,0 -13.48,-0.1 -2.96,-0.11 -5.8,-0.33 -8.32,-0.55l0 170.25 -111.09 0z"/>
 </g>
</svg>
