<?xml version="1.0" encoding="UTF-8"?>
<!DOCTYPE svg PUBLIC "-//W3C//DTD SVG 1.1//EN" "http://www.w3.org/Graphics/SVG/1.1/DTD/svg11.dtd">
<!-- Creator: CorelDRAW 2021.5 -->
<svg xmlns="http://www.w3.org/2000/svg" xml:space="preserve" width="1652px" height="1652px" version="1.1" style="shape-rendering:geometricPrecision; text-rendering:geometricPrecision; image-rendering:optimizeQuality; fill-rule:evenodd; clip-rule:evenodd"
viewBox="0 0 1652 1652"
 xmlns:xlink="http://www.w3.org/1999/xlink"
 xmlns:xodm="http://www.corel.com/coreldraw/odm/2003">
 <defs>
  <style type="text/css">
   <![CDATA[
    .str0 {stroke:black;stroke-width:2.36;stroke-miterlimit:22.9256}
    .fil0 {fill:black}
   ]]>
  </style>
 </defs>
 <g id="Layer_x0020_1">
  <metadata id="CorelCorpID_0Corel-Layer"/>
  <path class="fil0 str0" d="M826 1.18c455.54,0 824.82,369.28 824.82,824.82 0,455.54 -369.28,824.82 -824.82,824.82 -455.54,0 -824.82,-369.28 -824.82,-824.82 0,-455.54 369.28,-824.82 824.82,-824.82zm-176.79 799.51l0 226.24c-31.23,15.67 -61.69,27.39 -91.27,35.28 -29.69,7.99 -58.39,11.94 -86.22,11.94 -70.88,0 -129.6,-23.34 -176.39,-70.12 -46.78,-46.78 -70.11,-105.83 -70.11,-177.04 0,-71.98 23.66,-131.47 71.1,-178.47 47.44,-47.11 107.37,-70.67 180,-70.67 27.39,0 53.47,3.73 78.34,11.29 24.76,7.45 48.64,18.84 71.54,33.96l-11.94 116.46c-21.59,-21.8 -43.06,-37.8 -64.42,-47.88 -21.48,-10.18 -43.94,-15.22 -67.49,-15.22 -41.74,0 -76.25,13.91 -103.64,41.85 -27.39,27.93 -41.09,62.88 -41.09,104.73 0,44.15 13.26,80.09 39.66,108.03 26.41,27.93 60.48,41.85 102.11,41.85 9.64,0 19.39,-0.88 29.25,-2.52 9.86,-1.76 20.05,-4.17 30.79,-7.45l0 -67.6 -88.09 0 0 -94.66 197.87 0zm167.09 174.2l46.24 0c22.13,0 39.66,-5.48 52.37,-16.32 12.71,-10.96 19.06,-25.86 19.06,-44.92 0,-18.63 -6.25,-32.98 -18.63,-43.17 -12.37,-10.19 -30.01,-15.23 -52.8,-15.23l-46.24 0 0 119.64zm0 -197.2l36.93 0c21.8,0 38.78,-4.82 51.16,-14.36 12.27,-9.53 18.4,-23 18.4,-40.31 0,-17.42 -5.8,-30.13 -17.52,-38.24 -11.62,-8.21 -29.8,-12.27 -54.67,-12.27l-34.3 0 0 105.18zm-101.23 281.34l0 -465.4 143.85 0c54.23,0 95.1,9.86 122.82,29.69 27.71,19.83 41.63,49.19 41.63,88.19 0,23.78 -6.36,43.94 -18.96,60.48 -12.7,16.65 -31.77,29.47 -57.29,38.67 28.37,6.47 50.5,19.61 66.61,39.66 16.1,20.05 24.1,44.48 24.1,73.3 0,44.7 -16.54,78.44 -49.63,101.23 -33.09,22.79 -82.06,34.18 -146.92,34.18l-126.21 0zm502.79 -379.95l-15.12 0 0 124.24 20.16 0c28.04,0 49.41,-5.37 64.2,-16.21 14.79,-10.85 22.13,-26.4 22.13,-46.67 0,-21.26 -7.23,-36.7 -21.8,-46.56 -14.58,-9.87 -37.8,-14.8 -69.57,-14.8zm-126.21 379.95l0 -465.4 119.74 0c36.81,0 66.07,2.63 87.65,8 21.58,5.37 40.75,14.35 57.52,26.95 17.31,12.6 30.78,28.37 40.31,47.33 9.54,18.95 14.25,39 14.25,60.15 0,47.1 -16.77,84.35 -50.29,111.96 -33.42,27.61 -78.88,41.41 -136.29,41.41 -5.92,0 -10.41,0 -13.48,-0.1 -2.95,-0.11 -5.8,-0.33 -8.32,-0.55l0 170.25 -111.09 0z"/>
 </g>
</svg>
