<?xml version="1.0" encoding="UTF-8"?>
<!DOCTYPE svg PUBLIC "-//W3C//DTD SVG 1.1//EN" "http://www.w3.org/Graphics/SVG/1.1/DTD/svg11.dtd">
<!-- Creator: CorelDRAW 2021.5 -->
<svg xmlns="http://www.w3.org/2000/svg" xml:space="preserve" width="1652px" height="1652px" version="1.1" style="shape-rendering:geometricPrecision; text-rendering:geometricPrecision; image-rendering:optimizeQuality; fill-rule:evenodd; clip-rule:evenodd"
viewBox="0 0 1652 1652"
 xmlns:xlink="http://www.w3.org/1999/xlink"
 xmlns:xodm="http://www.corel.com/coreldraw/odm/2003">
 <defs>
  <style type="text/css">
   <![CDATA[
    .str0 {stroke:black;stroke-width:2.36;stroke-miterlimit:22.9256}
    .fil0 {fill:black}
   ]]>
  </style>
 </defs>
 <g id="Layer_x0020_1">
  <metadata id="CorelCorpID_0Corel-Layer"/>
  <path class="fil0 str0" d="M826 1.18c455.54,0 824.82,369.28 824.82,824.82 0,455.54 -369.28,824.82 -824.82,824.82 -455.54,0 -824.82,-369.28 -824.82,-824.82 0,-455.54 369.28,-824.82 824.82,-824.82zm-505.85 1057.85l0 -465.4 111.09 0 0 465.4 -111.09 0zm193.28 0l0 -480.52 10.63 0 289.78 271.59 0 -256.47 102.55 0 0 483.15 -9.65 0 -290.76 -271.59 0 253.84 -102.55 0zm609.17 -380.6l-18.3 0 0 128.84 23.45 0c28.04,0 49.41,-5.7 64.2,-16.98 14.79,-11.29 22.13,-27.61 22.13,-48.76 0,-22.24 -7.12,-38.23 -21.48,-48.2 -14.35,-9.97 -37.68,-14.9 -70,-14.9zm-126.1 380.6l0 -465.4 119.63 0c38.35,0 68.04,2.52 89.18,7.56 21.15,5.04 39.77,13.37 56.1,25.2 17.31,12.38 30.78,27.72 40.31,46.01 9.54,18.3 14.25,37.58 14.25,57.85 0,29.36 -7.45,55 -22.35,77.02 -14.9,22.02 -36.38,39.22 -64.42,51.71l141.98 200.05 -126.86 0 -124.24 -182.74 -15.78 0 0 182.74 -107.8 0z"/>
 </g>
</svg>
