<?xml version="1.0" encoding="UTF-8"?>
<!DOCTYPE svg PUBLIC "-//W3C//DTD SVG 1.1//EN" "http://www.w3.org/Graphics/SVG/1.1/DTD/svg11.dtd">
<!-- Creator: CorelDRAW 2021.5 -->
<svg xmlns="http://www.w3.org/2000/svg" xml:space="preserve" width="1652px" height="1652px" version="1.1" style="shape-rendering:geometricPrecision; text-rendering:geometricPrecision; image-rendering:optimizeQuality; fill-rule:evenodd; clip-rule:evenodd"
viewBox="0 0 1652 1652"
 xmlns:xlink="http://www.w3.org/1999/xlink"
 xmlns:xodm="http://www.corel.com/coreldraw/odm/2003">
 <defs>
  <style type="text/css">
   <![CDATA[
    .str0 {stroke:black;stroke-width:2.36;stroke-miterlimit:22.9256}
    .fil0 {fill:black}
   ]]>
  </style>
 </defs>
 <g id="Layer_x0020_1">
  <metadata id="CorelCorpID_0Corel-Layer"/>
  <path class="fil0 str0" d="M826 1.18c455.54,0 824.82,369.28 824.82,824.82 0,455.54 -369.28,824.82 -824.82,824.82 -455.54,0 -824.82,-369.28 -824.82,-824.82 0,-455.54 369.28,-824.82 824.82,-824.82zm-575.75 926.38c28.6,17.53 52.92,29.69 72.97,36.81 19.94,7.01 39.44,10.52 58.5,10.52 19.17,0 34.62,-4.27 46.34,-12.71 11.62,-8.44 17.42,-19.28 17.42,-32.54 0,-18.95 -20.7,-40.42 -62.23,-64.09 -6.68,-3.83 -11.83,-6.9 -15.44,-8.98l-31.45 -17.75c-30.56,-17.31 -53.24,-36.92 -67.92,-58.72 -14.79,-21.8 -22.13,-46.56 -22.13,-74.17 0,-37.47 14.13,-68.15 42.4,-92.14 28.15,-23.99 64.63,-35.94 109.33,-35.94 16.55,0 34.4,1.98 53.58,5.81 19.28,3.83 40.64,9.86 64.2,17.97l0 109.01c-22.46,-14.03 -43.72,-24.87 -63.87,-32.54 -20.16,-7.67 -37.25,-11.5 -51.39,-11.5 -15.66,0 -27.93,3.39 -36.92,10.07 -8.98,6.69 -13.47,15.89 -13.47,27.39 0,8.11 2.63,15.67 8,22.68 5.36,7.12 13.36,13.48 24.1,19.28l54.56 30.13c45.68,25.31 76.36,48.65 92.14,70.01 15.77,21.47 23.66,46.78 23.66,76.14 0,45.36 -15.45,82.06 -46.34,110 -31.01,27.94 -71.98,41.85 -123.15,41.85 -17.31,0 -36.15,-1.86 -56.53,-5.48 -20.26,-3.61 -42.72,-9.31 -67.05,-16.98l-9.31 -124.13zm458.09 47.33l46.23 0c22.13,0 39.66,-5.48 52.37,-16.32 12.71,-10.96 19.06,-25.86 19.06,-44.92 0,-18.63 -6.24,-32.98 -18.62,-43.17 -12.38,-10.19 -30.02,-15.23 -52.81,-15.23l-46.23 0 0 119.64zm0 -197.2l36.92 0c21.8,0 38.78,-4.82 51.16,-14.36 12.27,-9.53 18.41,-23 18.41,-40.31 0,-17.42 -5.81,-30.13 -17.53,-38.24 -11.62,-8.21 -29.8,-12.27 -54.67,-12.27l-34.29 0 0 105.18zm-101.23 281.34l0 -465.4 143.84 0c54.24,0 95.1,9.86 122.82,29.69 27.72,19.83 41.63,49.19 41.63,88.19 0,23.78 -6.35,43.94 -18.95,60.48 -12.71,16.65 -31.78,29.47 -57.3,38.67 28.37,6.47 50.5,19.61 66.61,39.66 16.1,20.05 24.1,44.48 24.1,73.3 0,44.7 -16.54,78.44 -49.63,101.23 -33.08,22.79 -82.06,34.18 -146.91,34.18l-126.21 0zm486.35 -99.92l24.43 0c48.53,0 86.55,-11.72 113.94,-35.27 27.39,-23.56 41.08,-55.99 41.08,-97.51 0,-41.52 -13.69,-74.06 -41.08,-97.83 -27.39,-23.78 -65.41,-35.61 -113.94,-35.61l-24.43 0 0 266.22zm-109.78 99.92l0 -465.4 123.58 0c86.88,0 155.02,20.71 204.21,62.23 49.2,41.52 73.85,98.38 73.85,170.47 0,43.17 -9.75,81.62 -29.26,115.03 -19.39,33.53 -47.98,61.03 -85.67,82.72 -21.47,12.38 -44.7,21.26 -69.9,26.73 -25.09,5.48 -56.2,8.22 -93.23,8.22l-123.58 0z"/>
 </g>
</svg>
