<?xml version="1.0" encoding="UTF-8"?>
<!DOCTYPE svg PUBLIC "-//W3C//DTD SVG 1.1//EN" "http://www.w3.org/Graphics/SVG/1.1/DTD/svg11.dtd">
<!-- Creator: CorelDRAW 2021.5 -->
<svg xmlns="http://www.w3.org/2000/svg" xml:space="preserve" width="1652px" height="1652px" version="1.1" style="shape-rendering:geometricPrecision; text-rendering:geometricPrecision; image-rendering:optimizeQuality; fill-rule:evenodd; clip-rule:evenodd"
viewBox="0 0 1652 1652"
 xmlns:xlink="http://www.w3.org/1999/xlink"
 xmlns:xodm="http://www.corel.com/coreldraw/odm/2003">
 <defs>
  <style type="text/css">
   <![CDATA[
    .str0 {stroke:black;stroke-width:2.36;stroke-miterlimit:22.9256}
    .fil0 {fill:black}
   ]]>
  </style>
 </defs>
 <g id="Layer_x0020_1">
  <metadata id="CorelCorpID_0Corel-Layer"/>
  <path class="fil0 str0" d="M826 1.18c455.54,0 824.82,369.28 824.82,824.82 0,455.54 -369.28,824.82 -824.82,824.82 -455.54,0 -824.82,-369.28 -824.82,-824.82 0,-455.54 369.28,-824.82 824.82,-824.82zm-524.53 1057.85l0 -465.4 109.78 0 0 202.57 153.7 -202.57 132.24 0 -175.51 221.41 189.31 243.99 -134.09 0 -165.65 -214.4 0 214.4 -109.78 0zm421.49 0l0 -465.4 286.6 0 0 95.97 -178.79 0 0 84.14 153.16 0 0 95.32 -153.16 0 0 92.02 181.42 0 0 97.95 -289.23 0zm326.62 -131.47c28.59,17.53 52.91,29.69 72.96,36.81 19.94,7.01 39.44,10.52 58.51,10.52 19.17,0 34.62,-4.27 46.34,-12.71 11.61,-8.44 17.42,-19.28 17.42,-32.54 0,-18.95 -20.71,-40.42 -62.23,-64.09 -6.68,-3.83 -11.83,-6.9 -15.45,-8.98l-31.44 -17.75c-30.57,-17.31 -53.25,-36.92 -67.93,-58.72 -14.79,-21.81 -22.13,-46.57 -22.13,-74.18 0,-37.46 14.14,-68.14 42.4,-92.13 28.16,-24 64.64,-35.94 109.34,-35.94 16.54,0 34.4,1.97 53.57,5.81 19.29,3.83 40.65,9.86 64.2,17.97l0 109.01c-22.45,-14.03 -43.71,-24.87 -63.87,-32.54 -20.16,-7.67 -37.25,-11.51 -51.38,-11.51 -15.67,0 -27.94,3.4 -36.92,10.08 -8.98,6.69 -13.48,15.89 -13.48,27.39 0,8.11 2.63,15.67 8,22.68 5.37,7.12 13.37,13.48 24.1,19.28l54.56 30.13c45.69,25.31 76.37,48.65 92.14,70.01 15.78,21.47 23.67,46.78 23.67,76.14 0,45.36 -15.45,82.06 -46.35,110 -31,27.93 -71.98,41.85 -123.14,41.85 -17.31,0 -36.15,-1.87 -56.53,-5.48 -20.27,-3.62 -42.73,-9.31 -67.05,-16.98l-9.31 -124.13z"/>
 </g>
</svg>
