<?xml version="1.0" encoding="UTF-8"?>
<!DOCTYPE svg PUBLIC "-//W3C//DTD SVG 1.1//EN" "http://www.w3.org/Graphics/SVG/1.1/DTD/svg11.dtd">
<!-- Creator: CorelDRAW 2021.5 -->
<svg xmlns="http://www.w3.org/2000/svg" xml:space="preserve" width="1652px" height="1652px" version="1.1" style="shape-rendering:geometricPrecision; text-rendering:geometricPrecision; image-rendering:optimizeQuality; fill-rule:evenodd; clip-rule:evenodd"
viewBox="0 0 1652 1652"
 xmlns:xlink="http://www.w3.org/1999/xlink"
 xmlns:xodm="http://www.corel.com/coreldraw/odm/2003">
 <defs>
  <style type="text/css">
   <![CDATA[
    .str0 {stroke:black;stroke-width:2.36;stroke-miterlimit:22.9256}
    .fil0 {fill:black}
   ]]>
  </style>
 </defs>
 <g id="Layer_x0020_1">
  <metadata id="CorelCorpID_0Corel-Layer"/>
  <path class="fil0 str0" d="M826 1.18c455.54,0 824.82,369.28 824.82,824.82 0,455.54 -369.28,824.82 -824.82,824.82 -455.54,0 -824.82,-369.28 -824.82,-824.82 0,-455.54 369.28,-824.82 824.82,-824.82zm-532.2 677.25l-18.3 0 0 128.84 23.45 0c28.05,0 49.41,-5.7 64.2,-16.98 14.79,-11.29 22.13,-27.61 22.13,-48.76 0,-22.24 -7.12,-38.23 -21.47,-48.2 -14.35,-9.97 -37.69,-14.9 -70.01,-14.9zm-126.1 380.6l0 -465.4 119.64 0c38.34,0 68.03,2.52 89.18,7.56 21.14,5.04 39.77,13.37 56.09,25.2 17.31,12.38 30.78,27.72 40.32,46.01 9.53,18.3 14.24,37.58 14.24,57.85 0,29.36 -7.45,55 -22.35,77.02 -14.9,22.02 -36.37,39.22 -64.42,51.71l141.99 200.05 -126.87 0 -124.24 -182.74 -15.78 0 0 182.74 -107.8 0zm478.02 -232.7c0,40.43 11.84,74.39 35.5,101.67 23.66,27.28 52.81,40.97 87.43,40.97 34.84,0 64.09,-13.58 87.64,-40.75 23.56,-27.28 35.28,-61.24 35.28,-101.89 0,-40.86 -11.72,-75.05 -35.28,-102.33 -23.55,-27.28 -52.8,-40.97 -87.64,-40.97 -34.62,0 -63.77,13.69 -87.43,40.97 -23.66,27.28 -35.5,61.47 -35.5,102.33zm-114.37 0c0,-34.51 5.91,-66.72 17.85,-96.74 11.84,-30.13 29.36,-56.97 52.48,-80.74 21.8,-22.68 47.22,-40.1 76.14,-52.15 28.82,-12.16 59.16,-18.19 90.83,-18.19 31.66,0 62.01,6.14 91.04,18.3 29.03,12.16 54.78,29.8 77.24,52.69 22.68,22.9 39.88,49.31 51.49,79.43 11.72,30.02 17.53,62.56 17.53,97.4 0,29.14 -4.06,56.53 -12.16,82.17 -8.22,25.63 -20.27,49.08 -36.38,70.33 -22.67,30.13 -50.5,53.58 -83.59,70.23 -33.08,16.76 -68.14,25.09 -105.17,25.09 -31.45,0 -61.58,-6.14 -90.39,-18.3 -28.81,-12.16 -54.34,-29.8 -76.58,-52.69 -23.12,-23.67 -40.64,-50.51 -52.48,-80.42 -11.94,-29.8 -17.85,-62.01 -17.85,-96.41zm525.79 232.7l0 -480.52 10.62 0 289.78 271.59 0 -256.47 102.55 0 0 483.15 -9.64 0 -290.77 -271.59 0 253.84 -102.54 0z"/>
 </g>
</svg>
