<?xml version="1.0" encoding="UTF-8"?>
<!DOCTYPE svg PUBLIC "-//W3C//DTD SVG 1.1//EN" "http://www.w3.org/Graphics/SVG/1.1/DTD/svg11.dtd">
<!-- Creator: CorelDRAW 2021.5 -->
<svg xmlns="http://www.w3.org/2000/svg" xml:space="preserve" width="1652px" height="1652px" version="1.1" style="shape-rendering:geometricPrecision; text-rendering:geometricPrecision; image-rendering:optimizeQuality; fill-rule:evenodd; clip-rule:evenodd"
viewBox="0 0 1652 1652"
 xmlns:xlink="http://www.w3.org/1999/xlink"
 xmlns:xodm="http://www.corel.com/coreldraw/odm/2003">
 <defs>
  <style type="text/css">
   <![CDATA[
    .str0 {stroke:black;stroke-width:2.36;stroke-miterlimit:22.9256}
    .fil0 {fill:black}
   ]]>
  </style>
 </defs>
 <g id="Layer_x0020_1">
  <metadata id="CorelCorpID_0Corel-Layer"/>
  <path class="fil0 str0" d="M826 1.18c455.54,0 824.82,369.28 824.82,824.82 0,455.54 -369.28,824.82 -824.82,824.82 -455.54,0 -824.82,-369.28 -824.82,-824.82 0,-455.54 369.28,-824.82 824.82,-824.82zm-663.34 1057.85l167.18 -240.7 -164.88 -224.7 135.63 0 95.98 132.89 90.16 -132.89 120.95 0 -149.87 215.06 183.4 250.34 -136.73 0 -113.06 -157.87 -107.15 157.87 -121.61 0zm821.27 -318.15c-20.16,-20.71 -40.54,-36.05 -61.14,-46.13 -20.7,-9.97 -42.39,-15.01 -65.07,-15.01 -39.33,0 -71.54,13.59 -96.52,40.76 -25.09,27.17 -37.58,62.12 -37.58,104.62 0,42.62 12.38,77.13 37.25,103.54 24.76,26.4 57.08,39.66 96.96,39.66 23.55,0 47,-4.93 70.44,-14.79 23.45,-9.86 46.78,-24.65 70.12,-44.38l-7.12 123.59c-19.94,13.47 -41.63,23.77 -65.3,30.78 -23.66,7.12 -48.2,10.63 -73.73,10.63 -27.39,0 -53.57,-4.27 -78.77,-12.82 -25.09,-8.54 -48.32,-21.25 -69.46,-37.91 -30.02,-23.55 -52.92,-52.26 -68.91,-86.22 -15.89,-33.85 -23.89,-70.88 -23.89,-110.87 0,-34.51 5.92,-66.83 17.64,-96.96 11.83,-30.13 28.92,-56.86 51.38,-79.98 22.68,-23.11 48.87,-40.75 78.67,-53.13 29.69,-12.27 61.02,-18.41 94,-18.41 26.18,0 51.05,3.62 74.82,10.96 23.78,7.23 46.46,18.3 68.04,33.09l-11.83 118.98zm170.16 218.23l24.44 0c48.53,0 86.55,-11.72 113.94,-35.27 27.39,-23.56 41.08,-55.99 41.08,-97.51 0,-41.52 -13.69,-74.06 -41.08,-97.83 -27.39,-23.78 -65.41,-35.61 -113.94,-35.61l-24.44 0 0 266.22zm-109.77 99.92l0 -465.4 123.58 0c86.88,0 155.02,20.71 204.21,62.23 49.2,41.52 73.85,98.38 73.85,170.47 0,43.17 -9.75,81.62 -29.26,115.03 -19.39,33.53 -47.98,61.03 -85.67,82.72 -21.47,12.38 -44.7,21.26 -69.9,26.73 -25.09,5.48 -56.2,8.22 -93.23,8.22l-123.58 0z"/>
 </g>
</svg>
