<?xml version="1.0" encoding="UTF-8"?>
<!DOCTYPE svg PUBLIC "-//W3C//DTD SVG 1.1//EN" "http://www.w3.org/Graphics/SVG/1.1/DTD/svg11.dtd">
<!-- Creator: CorelDRAW 2021.5 -->
<svg xmlns="http://www.w3.org/2000/svg" xml:space="preserve" width="1652px" height="1652px" version="1.1" style="shape-rendering:geometricPrecision; text-rendering:geometricPrecision; image-rendering:optimizeQuality; fill-rule:evenodd; clip-rule:evenodd"
viewBox="0 0 1652 1652"
 xmlns:xlink="http://www.w3.org/1999/xlink"
 xmlns:xodm="http://www.corel.com/coreldraw/odm/2003">
 <defs>
  <style type="text/css">
   <![CDATA[
    .str0 {stroke:black;stroke-width:2.36;stroke-miterlimit:22.9256}
    .fil0 {fill:black}
   ]]>
  </style>
 </defs>
 <g id="Layer_x0020_1">
  <metadata id="CorelCorpID_0Corel-Layer"/>
  <path class="fil0 str0" d="M826 1.18c455.54,0 824.82,369.28 824.82,824.82 0,455.54 -369.28,824.82 -824.82,824.82 -455.54,0 -824.82,-369.28 -824.82,-824.82 0,-455.54 369.28,-824.82 824.82,-824.82zm-441.1 909.95l122.26 0 -60.36 -145.71 -61.9 145.71zm-174.2 147.9l237.41 -479.86 7.01 0 232.15 479.86 -116.24 0 -29.47 -67.71 -188.87 0 -30.13 67.71 -111.86 0zm611.25 -380.6l-18.3 0 0 128.84 23.45 0c28.04,0 49.41,-5.7 64.2,-16.98 14.79,-11.29 22.13,-27.61 22.13,-48.76 0,-22.24 -7.12,-38.23 -21.48,-48.2 -14.35,-9.97 -37.68,-14.9 -70,-14.9zm-126.1 380.6l0 -465.4 119.63 0c38.35,0 68.04,2.52 89.18,7.56 21.15,5.04 39.77,13.37 56.1,25.2 17.31,12.38 30.78,27.72 40.31,46.01 9.53,18.3 14.25,37.58 14.25,57.85 0,29.36 -7.45,55 -22.35,77.02 -14.9,22.02 -36.38,39.22 -64.42,51.71l141.98 200.05 -126.86 0 -124.24 -182.74 -15.78 0 0 182.74 -107.8 0zm371.53 -131.47c28.59,17.53 52.92,29.69 72.97,36.81 19.93,7.01 39.44,10.52 58.5,10.52 19.17,0 34.62,-4.27 46.34,-12.71 11.61,-8.44 17.42,-19.28 17.42,-32.54 0,-18.95 -20.71,-40.42 -62.23,-64.09 -6.68,-3.83 -11.83,-6.9 -15.44,-8.98l-31.45 -17.75c-30.56,-17.31 -53.24,-36.92 -67.92,-58.72 -14.79,-21.8 -22.13,-46.56 -22.13,-74.17 0,-37.47 14.13,-68.15 42.39,-92.14 28.16,-23.99 64.64,-35.94 109.34,-35.94 16.55,0 34.4,1.98 53.58,5.81 19.28,3.83 40.64,9.86 64.2,17.97l0 109.01c-22.46,-14.03 -43.72,-24.87 -63.88,-32.54 -20.15,-7.67 -37.24,-11.5 -51.38,-11.5 -15.66,0 -27.93,3.39 -36.92,10.07 -8.98,6.69 -13.47,15.89 -13.47,27.39 0,8.11 2.63,15.67 7.99,22.68 5.37,7.12 13.37,13.48 24.11,19.28l54.56 30.13c45.68,25.31 76.36,48.65 92.13,70.01 15.78,21.47 23.67,46.78 23.67,76.14 0,45.36 -15.45,82.06 -46.34,110 -31.01,27.94 -71.98,41.85 -123.15,41.85 -17.31,0 -36.15,-1.86 -56.53,-5.48 -20.27,-3.61 -42.73,-9.31 -67.05,-16.98l-9.31 -124.13z"/>
 </g>
</svg>
