<?xml version="1.0" encoding="UTF-8"?>
<!DOCTYPE svg PUBLIC "-//W3C//DTD SVG 1.1//EN" "http://www.w3.org/Graphics/SVG/1.1/DTD/svg11.dtd">
<!-- Creator: CorelDRAW 2021.5 -->
<svg xmlns="http://www.w3.org/2000/svg" xml:space="preserve" width="1652px" height="1652px" version="1.1" style="shape-rendering:geometricPrecision; text-rendering:geometricPrecision; image-rendering:optimizeQuality; fill-rule:evenodd; clip-rule:evenodd"
viewBox="0 0 1652 1652"
 xmlns:xlink="http://www.w3.org/1999/xlink"
 xmlns:xodm="http://www.corel.com/coreldraw/odm/2003">
 <defs>
  <style type="text/css">
   <![CDATA[
    .str0 {stroke:black;stroke-width:2.36;stroke-miterlimit:22.9256}
    .fil0 {fill:black}
   ]]>
  </style>
 </defs>
 <g id="Layer_x0020_1">
  <metadata id="CorelCorpID_0Corel-Layer"/>
  <path class="fil0 str0" d="M826 1.18c455.54,0 824.82,369.28 824.82,824.82 0,455.54 -369.28,824.82 -824.82,824.82 -455.54,0 -824.82,-369.28 -824.82,-824.82 0,-455.54 369.28,-824.82 824.82,-824.82zm-581.67 926.38c28.6,17.53 52.92,29.69 72.97,36.81 19.94,7.01 39.44,10.52 58.5,10.52 19.18,0 34.62,-4.27 46.35,-12.71 11.61,-8.44 17.42,-19.28 17.42,-32.54 0,-18.95 -20.71,-40.42 -62.23,-64.09 -6.69,-3.83 -11.83,-6.9 -15.45,-8.98l-31.44 -17.75c-30.57,-17.31 -53.25,-36.92 -67.93,-58.72 -14.79,-21.8 -22.13,-46.56 -22.13,-74.17 0,-37.47 14.13,-68.15 42.4,-92.14 28.16,-23.99 64.64,-35.94 109.34,-35.94 16.54,0 34.4,1.98 53.57,5.81 19.28,3.83 40.65,9.86 64.2,17.97l0 109.01c-22.46,-14.03 -43.71,-24.87 -63.87,-32.54 -20.16,-7.67 -37.25,-11.5 -51.38,-11.5 -15.67,0 -27.94,3.39 -36.92,10.07 -8.99,6.69 -13.48,15.89 -13.48,27.39 0,8.11 2.63,15.67 8,22.68 5.37,7.12 13.36,13.48 24.1,19.28l54.56 30.13c45.69,25.31 76.36,48.65 92.14,70.01 15.77,21.47 23.66,46.78 23.66,76.14 0,45.36 -15.44,82.06 -46.34,110 -31,27.94 -71.98,41.85 -123.14,41.85 -17.31,0 -36.16,-1.86 -56.53,-5.48 -20.27,-3.61 -42.73,-9.31 -67.05,-16.98l-9.32 -124.13zm356.86 131.47l0 -465.4 109.77 0 0 170.91 179.46 0 0 -170.91 109.12 0 0 465.4 -109.12 0 0 -195.23 -179.46 0 0 195.23 -109.77 0zm605.44 -379.95l-15.12 0 0 124.24 20.16 0c28.04,0 49.41,-5.37 64.2,-16.21 14.79,-10.85 22.13,-26.4 22.13,-46.67 0,-21.26 -7.23,-36.7 -21.8,-46.56 -14.58,-9.87 -37.8,-14.8 -69.57,-14.8zm-126.21 379.95l0 -465.4 119.74 0c36.81,0 66.07,2.63 87.65,8 21.58,5.37 40.75,14.35 57.52,26.95 17.31,12.6 30.78,28.37 40.31,47.33 9.54,18.95 14.25,39 14.25,60.15 0,47.1 -16.77,84.35 -50.29,111.96 -33.42,27.61 -78.88,41.41 -136.29,41.41 -5.92,0 -10.41,0 -13.48,-0.1 -2.95,-0.11 -5.8,-0.33 -8.32,-0.55l0 170.25 -111.09 0z"/>
 </g>
</svg>
