<?xml version="1.0" encoding="UTF-8"?>
<!DOCTYPE svg PUBLIC "-//W3C//DTD SVG 1.1//EN" "http://www.w3.org/Graphics/SVG/1.1/DTD/svg11.dtd">
<!-- Creator: CorelDRAW 2021.5 -->
<svg xmlns="http://www.w3.org/2000/svg" xml:space="preserve" width="1652px" height="1652px" version="1.1" style="shape-rendering:geometricPrecision; text-rendering:geometricPrecision; image-rendering:optimizeQuality; fill-rule:evenodd; clip-rule:evenodd"
viewBox="0 0 1652 1652"
 xmlns:xlink="http://www.w3.org/1999/xlink"
 xmlns:xodm="http://www.corel.com/coreldraw/odm/2003">
 <defs>
  <style type="text/css">
   <![CDATA[
    .str0 {stroke:black;stroke-width:2.36;stroke-miterlimit:22.9256}
    .fil0 {fill:black}
   ]]>
  </style>
 </defs>
 <g id="Layer_x0020_1">
  <metadata id="CorelCorpID_0Corel-Layer"/>
  <path class="fil0 str0" d="M826 1.18c455.54,0 824.82,369.28 824.82,824.82 0,455.54 -369.28,824.82 -824.82,824.82 -455.54,0 -824.82,-369.28 -824.82,-824.82 0,-455.54 369.28,-824.82 824.82,-824.82zm-461.64 677.25l-18.3 0 0 128.84 23.44 0c28.05,0 49.41,-5.7 64.2,-16.98 14.79,-11.29 22.14,-27.61 22.14,-48.76 0,-22.24 -7.13,-38.23 -21.48,-48.2 -14.35,-9.97 -37.69,-14.9 -70,-14.9zm-126.1 380.6l0 -465.4 119.63 0c38.35,0 68.04,2.52 89.18,7.56 21.15,5.04 39.77,13.37 56.09,25.2 17.31,12.38 30.79,27.72 40.32,46.01 9.53,18.3 14.24,37.58 14.24,57.85 0,29.36 -7.45,55 -22.35,77.02 -14.9,22.02 -36.37,39.22 -64.42,51.71l141.99 200.05 -126.87 0 -124.23 -182.74 -15.78 0 0 182.74 -107.8 0zm497.74 -465.4l0 255.71c0,41.08 7.56,71.87 22.68,92.24 15.01,20.49 37.9,30.68 68.58,30.68 29.47,0 52.04,-9.53 67.49,-28.59 15.56,-18.96 23.33,-46.68 23.33,-83.05l0 -266.99 99.26 0 0 266.99c0,67.16 -17.2,119.64 -51.71,157.22 -34.4,37.57 -82.28,56.31 -143.52,56.31 -61.9,0 -109.99,-18.63 -144.4,-55.88 -34.29,-37.25 -51.49,-89.61 -51.49,-156.99l0 -267.65 109.78 0zm458.3 381.26l46.24 0c22.13,0 39.66,-5.48 52.36,-16.32 12.71,-10.96 19.07,-25.86 19.07,-44.92 0,-18.63 -6.25,-32.98 -18.63,-43.17 -12.38,-10.19 -30.02,-15.23 -52.8,-15.23l-46.24 0 0 119.64zm0 -197.2l36.92 0c21.81,0 38.79,-4.82 51.17,-14.36 12.27,-9.53 18.4,-23 18.4,-40.31 0,-17.42 -5.8,-30.13 -17.53,-38.24 -11.61,-8.21 -29.8,-12.27 -54.67,-12.27l-34.29 0 0 105.18zm-101.23 281.34l0 -465.4 143.85 0c54.23,0 95.1,9.86 122.82,29.69 27.71,19.83 41.63,49.19 41.63,88.19 0,23.78 -6.36,43.94 -18.96,60.48 -12.7,16.65 -31.77,29.47 -57.29,38.67 28.37,6.47 50.5,19.61 66.61,39.66 16.1,20.05 24.1,44.48 24.1,73.3 0,44.7 -16.54,78.44 -49.63,101.23 -33.09,22.79 -82.06,34.18 -146.92,34.18l-126.21 0z"/>
 </g>
</svg>
