<?xml version="1.0" encoding="UTF-8"?>
<!DOCTYPE svg PUBLIC "-//W3C//DTD SVG 1.1//EN" "http://www.w3.org/Graphics/SVG/1.1/DTD/svg11.dtd">
<!-- Creator: CorelDRAW 2021.5 -->
<svg xmlns="http://www.w3.org/2000/svg" xml:space="preserve" width="1652px" height="1652px" version="1.1" style="shape-rendering:geometricPrecision; text-rendering:geometricPrecision; image-rendering:optimizeQuality; fill-rule:evenodd; clip-rule:evenodd"
viewBox="0 0 1652 1652"
 xmlns:xlink="http://www.w3.org/1999/xlink"
 xmlns:xodm="http://www.corel.com/coreldraw/odm/2003">
 <defs>
  <style type="text/css">
   <![CDATA[
    .str0 {stroke:black;stroke-width:2.36;stroke-miterlimit:22.9256}
    .fil0 {fill:black}
   ]]>
  </style>
 </defs>
 <g id="Layer_x0020_1">
  <metadata id="CorelCorpID_0Corel-Layer"/>
  <path class="fil0 str0" d="M826 1.18c455.54,0 824.82,369.28 824.82,824.82 0,455.54 -369.28,824.82 -824.82,824.82 -455.54,0 -824.82,-369.28 -824.82,-824.82 0,-455.54 369.28,-824.82 824.82,-824.82zm-653.64 960.56c11.72,5.15 22.56,9.1 32.42,11.73 9.76,2.73 18.41,4.05 25.97,4.05 22.02,0 37.69,-7.23 47.11,-21.69 9.42,-14.47 14.13,-39.01 14.13,-73.63l0 -288.57 111.75 0 0 314.87c0,53.68 -13.8,94.76 -41.41,123.14 -27.61,28.38 -67.49,42.51 -119.64,42.51 -9.86,0 -19.72,-0.66 -29.47,-1.97 -9.64,-1.21 -19.83,-3.18 -30.24,-5.7l-10.62 -104.74zm264.82 97.29l96.63 -480.52 8 0 175.62 303.04 165.65 -303.04 8.33 0 97.28 480.52 -105.61 0 -39.44 -212.54 -124.9 229.63 -7.45 0 -134.09 -232.81 -40.87 215.72 -99.15 0zm702.62 -99.92l24.43 0c48.53,0 86.55,-11.72 113.94,-35.27 27.39,-23.56 41.08,-55.99 41.08,-97.51 0,-41.52 -13.69,-74.06 -41.08,-97.83 -27.39,-23.78 -65.41,-35.61 -113.94,-35.61l-24.43 0 0 266.22zm-109.78 99.92l0 -465.4 123.58 0c86.88,0 155.03,20.71 204.22,62.23 49.19,41.52 73.84,98.38 73.84,170.47 0,43.17 -9.75,81.62 -29.25,115.03 -19.39,33.53 -47.99,61.03 -85.68,82.72 -21.47,12.38 -44.7,21.26 -69.9,26.73 -25.08,5.48 -56.2,8.22 -93.23,8.22l-123.58 0z"/>
 </g>
</svg>
