<?xml version="1.0" encoding="UTF-8"?>
<!DOCTYPE svg PUBLIC "-//W3C//DTD SVG 1.1//EN" "http://www.w3.org/Graphics/SVG/1.1/DTD/svg11.dtd">
<!-- Creator: CorelDRAW 2021.5 -->
<svg xmlns="http://www.w3.org/2000/svg" xml:space="preserve" width="1652px" height="1652px" version="1.1" style="shape-rendering:geometricPrecision; text-rendering:geometricPrecision; image-rendering:optimizeQuality; fill-rule:evenodd; clip-rule:evenodd"
viewBox="0 0 1652 1652"
 xmlns:xlink="http://www.w3.org/1999/xlink"
 xmlns:xodm="http://www.corel.com/coreldraw/odm/2003">
 <defs>
  <style type="text/css">
   <![CDATA[
    .str0 {stroke:black;stroke-width:2.36;stroke-miterlimit:22.9256}
    .fil0 {fill:black}
   ]]>
  </style>
 </defs>
 <g id="Layer_x0020_1">
  <metadata id="CorelCorpID_0Corel-Layer"/>
  <path class="fil0 str0" d="M826 1.18c455.54,0 824.82,369.28 824.82,824.82 0,455.54 -369.28,824.82 -824.82,824.82 -455.54,0 -824.82,-369.28 -824.82,-824.82 0,-455.54 369.28,-824.82 824.82,-824.82zm-528.75 909.95l122.27 0 -60.37 -145.71 -61.9 145.71zm-174.2 147.9l237.42 -479.86 7.01 0 232.15 479.86 -116.24 0 -29.47 -67.71 -188.88 0 -30.13 67.71 -111.86 0zm578.82 -465.4l0 255.71c0,41.08 7.56,71.87 22.68,92.24 15.01,20.49 37.91,30.68 68.58,30.68 29.47,0 52.04,-9.53 67.49,-28.59 15.56,-18.96 23.34,-46.68 23.34,-83.05l0 -266.99 99.26 0 0 266.99c0,67.16 -17.21,119.64 -51.72,157.22 -34.4,37.57 -82.27,56.31 -143.52,56.31 -61.9,0 -109.99,-18.63 -144.39,-55.88 -34.29,-37.25 -51.5,-89.61 -51.5,-156.99l0 -267.65 109.78 0zm466.85 365.48l24.43 0c48.54,0 86.55,-11.72 113.94,-35.27 27.39,-23.56 41.09,-55.99 41.09,-97.51 0,-41.52 -13.7,-74.06 -41.09,-97.83 -27.39,-23.78 -65.4,-35.61 -113.94,-35.61l-24.43 0 0 266.22zm-109.78 99.92l0 -465.4 123.58 0c86.88,0 155.03,20.71 204.22,62.23 49.19,41.52 73.84,98.38 73.84,170.47 0,43.17 -9.75,81.62 -29.25,115.03 -19.39,33.53 -47.99,61.03 -85.67,82.72 -21.48,12.38 -44.7,21.26 -69.9,26.73 -25.09,5.48 -56.2,8.22 -93.24,8.22l-123.58 0z"/>
 </g>
</svg>
