<?xml version="1.0" encoding="UTF-8"?>
<!DOCTYPE svg PUBLIC "-//W3C//DTD SVG 1.1//EN" "http://www.w3.org/Graphics/SVG/1.1/DTD/svg11.dtd">
<!-- Creator: CorelDRAW 2021.5 -->
<svg xmlns="http://www.w3.org/2000/svg" xml:space="preserve" width="1652px" height="1652px" version="1.1" style="shape-rendering:geometricPrecision; text-rendering:geometricPrecision; image-rendering:optimizeQuality; fill-rule:evenodd; clip-rule:evenodd"
viewBox="0 0 1652 1652"
 xmlns:xlink="http://www.w3.org/1999/xlink"
 xmlns:xodm="http://www.corel.com/coreldraw/odm/2003">
 <defs>
  <style type="text/css">
   <![CDATA[
    .str0 {stroke:black;stroke-width:2.36;stroke-miterlimit:22.9256}
    .fil0 {fill:black}
   ]]>
  </style>
 </defs>
 <g id="Layer_x0020_1">
  <metadata id="CorelCorpID_0Corel-Layer"/>
  <path class="fil0 str0" d="M826 1.18c455.54,0 824.82,369.28 824.82,824.82 0,455.54 -369.28,824.82 -824.82,824.82 -455.54,0 -824.82,-369.28 -824.82,-824.82 0,-455.54 369.28,-824.82 824.82,-824.82zm-228.73 739.7c-20.15,-20.71 -40.53,-36.05 -61.13,-46.13 -20.71,-9.97 -42.4,-15.01 -65.08,-15.01 -39.33,0 -71.54,13.59 -96.52,40.76 -25.08,27.17 -37.57,62.12 -37.57,104.62 0,42.62 12.38,77.13 37.25,103.54 24.76,26.4 57.07,39.66 96.95,39.66 23.56,0 47,-4.93 70.45,-14.79 23.44,-9.86 46.78,-24.65 70.12,-44.38l-7.13 123.59c-19.93,13.47 -41.63,23.77 -65.29,30.78 -23.67,7.12 -48.21,10.63 -73.73,10.63 -27.39,0 -53.58,-4.27 -78.78,-12.82 -25.08,-8.54 -48.31,-21.25 -69.45,-37.91 -30.02,-23.55 -52.92,-52.26 -68.92,-86.22 -15.88,-33.85 -23.88,-70.88 -23.88,-110.87 0,-34.51 5.92,-66.83 17.64,-96.96 11.83,-30.13 28.92,-56.86 51.38,-79.98 22.68,-23.11 48.86,-40.75 78.66,-53.13 29.69,-12.27 61.03,-18.41 94,-18.41 26.19,0 51.06,3.62 74.83,10.96 23.78,7.23 46.45,18.3 68.04,33.09l-11.84 118.98zm186.5 -62.45l-18.3 0 0 128.84 23.45 0c28.04,0 49.41,-5.7 64.2,-16.98 14.79,-11.29 22.13,-27.61 22.13,-48.76 0,-22.24 -7.12,-38.23 -21.48,-48.2 -14.35,-9.97 -37.68,-14.9 -70,-14.9zm-126.1 380.6l0 -465.4 119.63 0c38.35,0 68.04,2.52 89.18,7.56 21.15,5.04 39.77,13.37 56.1,25.2 17.31,12.38 30.78,27.72 40.31,46.01 9.53,18.3 14.24,37.58 14.24,57.85 0,29.36 -7.44,55 -22.34,77.02 -14.9,22.02 -36.38,39.22 -64.42,51.71l141.98 200.05 -126.87 0 -124.23 -182.74 -15.78 0 0 182.74 -107.8 0zm736.36 -318.15c-20.16,-20.71 -40.54,-36.05 -61.14,-46.13 -20.7,-9.97 -42.4,-15.01 -65.07,-15.01 -39.34,0 -71.55,13.59 -96.52,40.76 -25.09,27.17 -37.58,62.12 -37.58,104.62 0,42.62 12.38,77.13 37.25,103.54 24.76,26.4 57.08,39.66 96.95,39.66 23.56,0 47.01,-4.93 70.45,-14.79 23.45,-9.86 46.78,-24.65 70.12,-44.38l-7.12 123.59c-19.94,13.47 -41.64,23.77 -65.3,30.78 -23.66,7.12 -48.21,10.63 -73.73,10.63 -27.39,0 -53.58,-4.27 -78.77,-12.82 -25.09,-8.54 -48.32,-21.25 -69.46,-37.91 -30.02,-23.55 -52.92,-52.26 -68.91,-86.22 -15.89,-33.85 -23.89,-70.88 -23.89,-110.87 0,-34.51 5.92,-66.83 17.64,-96.96 11.83,-30.13 28.92,-56.86 51.38,-79.98 22.68,-23.11 48.87,-40.75 78.66,-53.13 29.69,-12.27 61.03,-18.41 94,-18.41 26.19,0 51.06,3.62 74.83,10.96 23.78,7.23 46.46,18.3 68.04,33.09l-11.83 118.98z"/>
 </g>
</svg>
