<?xml version="1.0" encoding="UTF-8"?>
<!DOCTYPE svg PUBLIC "-//W3C//DTD SVG 1.1//EN" "http://www.w3.org/Graphics/SVG/1.1/DTD/svg11.dtd">
<!-- Creator: CorelDRAW 2021.5 -->
<svg xmlns="http://www.w3.org/2000/svg" xml:space="preserve" width="1652px" height="1652px" version="1.1" style="shape-rendering:geometricPrecision; text-rendering:geometricPrecision; image-rendering:optimizeQuality; fill-rule:evenodd; clip-rule:evenodd"
viewBox="0 0 1652 1652"
 xmlns:xlink="http://www.w3.org/1999/xlink"
 xmlns:xodm="http://www.corel.com/coreldraw/odm/2003">
 <defs>
  <style type="text/css">
   <![CDATA[
    .str0 {stroke:black;stroke-width:2.36;stroke-miterlimit:22.9256}
    .fil0 {fill:black}
   ]]>
  </style>
 </defs>
 <g id="Layer_x0020_1">
  <metadata id="CorelCorpID_0Corel-Layer"/>
  <path class="fil0 str0" d="M826 1.18c455.54,0 824.82,369.28 824.82,824.82 0,455.54 -369.28,824.82 -824.82,824.82 -455.54,0 -824.82,-369.28 -824.82,-824.82 0,-455.54 369.28,-824.82 824.82,-824.82zm-581.17 1057.85l0 -465.4 109.77 0 0 202.57 153.71 -202.57 132.24 0 -175.51 221.42 189.31 243.98 -134.1 0 -165.65 -214.4 0 214.4 -109.77 0zm816.55 -258.34l0 226.24c-31.22,15.67 -61.68,27.39 -91.26,35.28 -29.69,7.99 -58.39,11.94 -86.22,11.94 -70.88,0 -129.61,-23.34 -176.39,-70.12 -46.78,-46.78 -70.11,-105.83 -70.11,-177.04 0,-71.98 23.66,-131.47 71.1,-178.47 47.44,-47.11 107.37,-70.67 180,-70.67 27.39,0 53.47,3.73 78.34,11.29 24.76,7.45 48.64,18.84 71.54,33.96l-11.94 116.46c-21.59,-21.8 -43.06,-37.8 -64.42,-47.88 -21.48,-10.18 -43.94,-15.22 -67.49,-15.22 -41.74,0 -76.25,13.91 -103.64,41.85 -27.39,27.93 -41.09,62.88 -41.09,104.73 0,44.15 13.26,80.09 39.66,108.03 26.41,27.93 60.48,41.85 102.11,41.85 9.64,0 19.39,-0.88 29.25,-2.52 9.86,-1.76 20.05,-4.17 30.79,-7.45l0 -67.6 -88.09 0 0 -94.66 197.86 0zm44.84 126.87c28.59,17.53 52.91,29.69 72.96,36.81 19.94,7.01 39.44,10.52 58.51,10.52 19.17,0 34.62,-4.27 46.34,-12.71 11.61,-8.44 17.42,-19.28 17.42,-32.54 0,-18.95 -20.71,-40.42 -62.23,-64.09 -6.68,-3.83 -11.83,-6.9 -15.45,-8.98l-31.44 -17.75c-30.57,-17.31 -53.24,-36.92 -67.93,-58.72 -14.79,-21.8 -22.13,-46.56 -22.13,-74.17 0,-37.47 14.14,-68.15 42.4,-92.14 28.16,-23.99 64.64,-35.94 109.34,-35.94 16.54,0 34.4,1.98 53.57,5.81 19.29,3.83 40.65,9.86 64.2,17.97l0 109.01c-22.45,-14.03 -43.71,-24.87 -63.87,-32.54 -20.16,-7.67 -37.25,-11.5 -51.38,-11.5 -15.67,0 -27.94,3.39 -36.92,10.07 -8.98,6.69 -13.48,15.89 -13.48,27.39 0,8.11 2.63,15.67 8,22.68 5.37,7.12 13.37,13.48 24.1,19.28l54.56 30.13c45.69,25.31 76.37,48.65 92.14,70.01 15.78,21.47 23.67,46.78 23.67,76.14 0,45.36 -15.45,82.06 -46.35,110 -31,27.94 -71.98,41.85 -123.14,41.85 -17.31,0 -36.15,-1.86 -56.53,-5.48 -20.27,-3.61 -42.73,-9.31 -67.05,-16.98l-9.31 -124.13z"/>
 </g>
</svg>
