<?xml version="1.0" encoding="UTF-8"?>
<!DOCTYPE svg PUBLIC "-//W3C//DTD SVG 1.1//EN" "http://www.w3.org/Graphics/SVG/1.1/DTD/svg11.dtd">
<!-- Creator: CorelDRAW 2021.5 -->
<svg xmlns="http://www.w3.org/2000/svg" xml:space="preserve" width="1652px" height="1652px" version="1.1" style="shape-rendering:geometricPrecision; text-rendering:geometricPrecision; image-rendering:optimizeQuality; fill-rule:evenodd; clip-rule:evenodd"
viewBox="0 0 1652 1652"
 xmlns:xlink="http://www.w3.org/1999/xlink"
 xmlns:xodm="http://www.corel.com/coreldraw/odm/2003">
 <defs>
  <style type="text/css">
   <![CDATA[
    .str0 {stroke:black;stroke-width:2.36;stroke-miterlimit:22.9256}
    .fil0 {fill:black}
   ]]>
  </style>
 </defs>
 <g id="Layer_x0020_1">
  <metadata id="CorelCorpID_0Corel-Layer"/>
  <path class="fil0 str0" d="M826 1.18c455.54,0 824.82,369.28 824.82,824.82 0,455.54 -369.28,824.82 -824.82,824.82 -455.54,0 -824.82,-369.28 -824.82,-824.82 0,-455.54 369.28,-824.82 824.82,-824.82zm-599.74 1094.88c2.85,-15.23 6.57,-30.35 11.28,-45.58 4.71,-15.22 10.63,-30.67 17.64,-46.56 -26.73,-23.99 -47,-51.16 -60.58,-81.73 -13.59,-30.45 -20.38,-63.43 -20.38,-99.04 0,-27.39 4.16,-53.9 12.49,-79.65 8.43,-25.63 20.59,-49.08 36.59,-70.22 22.79,-30.24 50.51,-53.58 83.26,-70.01 32.76,-16.54 67.71,-24.76 104.96,-24.76 26.51,0 52.04,4.27 76.58,12.71 24.54,8.44 47.22,20.92 68.25,37.36 29.8,23.33 52.59,52.04 68.59,86.11 15.88,33.96 23.88,71.21 23.88,111.64 0,32.1 -6.24,63.1 -18.62,92.79 -12.38,29.8 -29.91,55.55 -52.37,77.46 -20.05,20.05 -42.95,35.61 -68.48,46.67 -25.63,11.07 -51.16,16.55 -76.58,16.55 -10.95,0 -29.58,-2.74 -55.87,-8.33l-0.66 -0.33 -0.98 6.68c14.57,3.29 46.89,13.26 96.95,30.24 49.96,16.87 92.91,26.3 128.62,28.16l-26.95 83.48c-39.55,-2.96 -94.65,-19.61 -165.32,-49.74 -9.2,-3.94 -16.1,-6.79 -20.81,-8.76l-3.84 -1.54c-60.58,-25.63 -113.17,-40.2 -157.65,-43.6zm62.34 -269.73c0,40.43 11.83,74.39 35.49,101.67 23.67,27.28 52.81,40.97 87.43,40.97 34.84,0 64.09,-13.58 87.64,-40.75 23.56,-27.28 35.28,-61.24 35.28,-101.89 0,-40.86 -11.72,-75.05 -35.28,-102.33 -23.55,-27.28 -52.8,-40.97 -87.64,-40.97 -34.62,0 -63.76,13.69 -87.43,40.97 -23.66,27.28 -35.49,61.47 -35.49,102.33zm512.64 84.8l122.27 0 -60.37 -145.71 -61.9 145.71zm-174.2 147.9l237.42 -479.86 7.01 0 232.15 479.86 -116.24 0 -29.47 -67.71 -188.88 0 -30.13 67.71 -111.86 0zm611.25 -380.6l-18.3 0 0 128.84 23.45 0c28.05,0 49.41,-5.7 64.2,-16.98 14.79,-11.29 22.13,-27.61 22.13,-48.76 0,-22.24 -7.12,-38.23 -21.47,-48.2 -14.35,-9.97 -37.69,-14.9 -70.01,-14.9zm-126.1 380.6l0 -465.4 119.64 0c38.34,0 68.03,2.52 89.18,7.56 21.14,5.04 39.77,13.37 56.09,25.2 17.31,12.38 30.79,27.72 40.32,46.01 9.53,18.3 14.24,37.58 14.24,57.85 0,29.36 -7.45,55 -22.35,77.02 -14.9,22.02 -36.37,39.22 -64.42,51.71l141.99 200.05 -126.87 0 -124.24 -182.74 -15.78 0 0 182.74 -107.8 0z"/>
 </g>
</svg>
