<?xml version="1.0" encoding="UTF-8"?>
<!DOCTYPE svg PUBLIC "-//W3C//DTD SVG 1.1//EN" "http://www.w3.org/Graphics/SVG/1.1/DTD/svg11.dtd">
<!-- Creator: CorelDRAW 2021.5 -->
<svg xmlns="http://www.w3.org/2000/svg" xml:space="preserve" width="1652px" height="1652px" version="1.1" style="shape-rendering:geometricPrecision; text-rendering:geometricPrecision; image-rendering:optimizeQuality; fill-rule:evenodd; clip-rule:evenodd"
viewBox="0 0 1652 1652"
 xmlns:xlink="http://www.w3.org/1999/xlink"
 xmlns:xodm="http://www.corel.com/coreldraw/odm/2003">
 <defs>
  <style type="text/css">
   <![CDATA[
    .str0 {stroke:black;stroke-width:2.36;stroke-miterlimit:22.9256}
    .fil0 {fill:black}
   ]]>
  </style>
 </defs>
 <g id="Layer_x0020_1">
  <metadata id="CorelCorpID_0Corel-Layer"/>
  <path class="fil0 str0" d="M826 1.18c455.54,0 824.82,369.28 824.82,824.82 0,455.54 -369.28,824.82 -824.82,824.82 -455.54,0 -824.82,-369.28 -824.82,-824.82 0,-455.54 369.28,-824.82 824.82,-824.82zm-610.7 1057.85l0 -465.4 109.78 0 0 170.91 179.45 0 0 -170.91 109.12 0 0 465.4 -109.12 0 0 -195.23 -179.45 0 0 195.23 -109.78 0zm584.4 -465.4l0 255.71c0,41.08 7.56,71.87 22.68,92.24 15.01,20.49 37.91,30.68 68.59,30.68 29.47,0 52.04,-9.53 67.48,-28.59 15.56,-18.96 23.34,-46.68 23.34,-83.05l0 -266.99 99.26 0 0 266.99c0,67.16 -17.2,119.64 -51.71,157.22 -34.4,37.57 -82.28,56.31 -143.52,56.31 -61.9,0 -110,-18.63 -144.4,-55.88 -34.29,-37.25 -51.49,-89.61 -51.49,-156.99l0 -267.65 109.77 0zm357.08 465.4l0 -465.4 289.23 0 0 94.66 -178.8 0 0 92.68 159.74 0 0 94 -159.74 0 0 184.06 -110.43 0z"/>
 </g>
</svg>
